<?xml version="1.0" encoding="UTF-8" standalone="no"?>
<svg width="210.058mm" height="296.926mm"
 viewBox="0 0 2481 3507"
 xmlns="http://www.w3.org/2000/svg" xmlns:xlink="http://www.w3.org/1999/xlink"  version="1.2" baseProfile="tiny">
<title>The Tin Whistle - Scale of G</title>
<desc>Generated by MuseScore 2.0.2</desc>
<defs>
</defs>
<g fill="none" stroke="black" stroke-width="1" fill-rule="evenodd" stroke-linecap="square" stroke-linejoin="bevel" >

<g fill="none" stroke="#000000" stroke-opacity="1" stroke-width="1" stroke-linecap="square" stroke-linejoin="bevel" transform="matrix(3.125,0,0,3.125,118.11,208.735)"
font-family="FreeSerif" font-size="32" font-weight="400" font-style="normal" 
>
</g>

<g fill="#000000" fill-opacity="1" stroke="none" transform="matrix(3.125,0,0,3.125,665.473,208.735)"
font-family="FreeSerif" font-size="32" font-weight="400" font-style="normal" 
>
<path vector-effect="none" fill-rule="nonzero" d="M8.064,-19.776 L6.336,-19.776 C4.544,-19.776 3.344,-19.5345 2.736,-19.0515 C2.128,-18.5685 1.632,-17.466 1.248,-15.744 L0.48,-15.744 L0.672,-21.184 L18.72,-21.184 L18.912,-15.744 L18.144,-15.744 C17.7813,-17.487 17.296,-18.5948 16.688,-19.0673 C16.08,-19.5398 14.8693,-19.776 13.056,-19.776 L11.328,-19.776 L11.328,-3.4785 C11.328,-2.30917 11.5093,-1.55433 11.872,-1.214 C12.2347,-0.873667 13.0773,-0.671667 14.4,-0.608 L14.4,0 L5.056,0 L5.056,-0.608 C6.37867,-0.693 7.21067,-0.910917 7.552,-1.26175 C7.89333,-1.61258 8.064,-2.46833 8.064,-3.829 L8.064,-19.776 M24.088,-10.976 L24.088,-3.264 C24.088,-2.15467 24.2141,-1.44 24.4663,-1.12 C24.7184,-0.8 25.307,-0.586667 26.232,-0.48 L26.232,0 L19.352,0 L19.352,-0.48 C20.255,-0.608 20.8167,-0.821333 21.0373,-1.12 C21.2577,-1.41867 21.368,-2.13333 21.368,-3.264 L21.368,-18.336 C21.368,-19.0187 21.2773,-19.4667 21.096,-19.68 C20.9147,-19.8933 20.5147,-20 19.896,-20 C19.7467,-20 19.5653,-19.9787 19.352,-19.936 L19.352,-20.448 C20.8687,-20.8533 22.3933,-21.3227 23.926,-21.856 L24.088,-21.76 L24.088,-12.032 C24.8093,-12.992 25.536,-13.68 26.268,-14.096 C27,-14.512 27.8328,-14.72 28.7665,-14.72 C31.4075,-14.72 32.728,-13.024 32.728,-9.632 L32.728,-3.264 C32.728,-2.15467 32.8277,-1.456 33.027,-1.168 C33.2263,-0.88 33.756,-0.650667 34.616,-0.48 L34.616,0 L27.864,0 L27.864,-0.48 C28.768,-0.565333 29.3513,-0.778667 29.614,-1.12 C29.8767,-1.46133 30.008,-2.176 30.008,-3.264 L30.008,-9.6 C30.008,-11.8613 29.2123,-12.992 27.621,-12.992 C27.0057,-12.992 26.4274,-12.8373 25.8863,-12.528 C25.3451,-12.2187 24.7457,-11.7013 24.088,-10.976 M38.296,-8.864 C38.3387,-7.54467 38.52,-6.40858 38.84,-5.45575 C39.16,-4.50292 39.576,-3.79092 40.088,-3.31975 C40.6,-2.84858 41.1173,-2.5135 41.64,-2.3145 C42.1627,-2.1155 42.712,-2.016 43.288,-2.016 C44.312,-2.016 45.2027,-2.26733 45.96,-2.77 C46.7173,-3.27267 47.48,-4.12083 48.248,-5.3145 L48.76,-5.0945 C48.0987,-3.34383 47.1813,-2.00375 46.008,-1.07425 C44.8347,-0.14475 43.4907,0.32 41.976,0.32 C40.1413,0.32 38.6533,-0.328667 37.512,-1.626 C36.3707,-2.92333 35.8,-4.67633 35.8,-6.885 C35.8,-9.242 36.456,-11.1371 37.768,-12.5703 C39.08,-14.0034 40.7173,-14.72 42.68,-14.72 C44.3013,-14.72 45.56,-14.2347 46.456,-13.264 C47.352,-12.2933 47.9173,-10.8267 48.152,-8.864 L38.296,-8.864 M38.36,-9.824 L44.888,-9.824 C44.6747,-11.2107 44.344,-12.1707 43.896,-12.704 C43.448,-13.2373 42.7333,-13.504 41.752,-13.504 C39.832,-13.504 38.7013,-12.2773 38.36,-9.824 M65.064,-19.776 L63.336,-19.776 C61.544,-19.776 60.344,-19.5345 59.736,-19.0515 C59.128,-18.5685 58.632,-17.466 58.248,-15.744 L57.48,-15.744 L57.672,-21.184 L75.72,-21.184 L75.912,-15.744 L75.144,-15.744 C74.7813,-17.487 74.296,-18.5948 73.688,-19.0673 C73.08,-19.5398 71.8693,-19.776 70.056,-19.776 L68.328,-19.776 L68.328,-3.4785 C68.328,-2.30917 68.5093,-1.55433 68.872,-1.214 C69.2347,-0.873667 70.0773,-0.671667 71.4,-0.608 L71.4,0 L62.056,0 L62.056,-0.608 C63.3787,-0.693 64.2107,-0.910917 64.552,-1.26175 C64.8933,-1.61258 65.064,-2.46833 65.064,-3.829 L65.064,-19.776 M77.998,-12.576 C77.535,-12.576 77.093,-12.544 76.672,-12.48 L76.672,-12.96 C78.165,-13.3867 79.8178,-13.9733 81.6305,-14.72 L81.76,-14.624 L81.76,-3.264 C81.76,-2.112 81.8915,-1.38133 82.1545,-1.072 C82.4175,-0.762667 83.0647,-0.565333 84.096,-0.48 L84.096,0 L76.512,0 L76.512,-0.48 C77.6213,-0.544 78.32,-0.736 78.608,-1.056 C78.896,-1.376 79.04,-2.112 79.04,-3.264 L79.04,-10.688 C79.04,-11.392 78.9611,-11.8827 78.8033,-12.16 C78.6454,-12.4373 78.377,-12.576 77.998,-12.576 M80.1085,-21.856 C80.5835,-21.856 80.9828,-21.696 81.3065,-21.376 C81.6302,-21.056 81.792,-20.672 81.792,-20.224 C81.792,-19.7547 81.6302,-19.3653 81.3065,-19.056 C80.9828,-18.7467 80.5835,-18.592 80.1085,-18.592 C79.6572,-18.592 79.2756,-18.752 78.9638,-19.072 C78.6519,-19.392 78.496,-19.776 78.496,-20.224 C78.496,-20.672 78.6572,-21.056 78.9797,-21.376 C79.3023,-21.696 79.6785,-21.856 80.1085,-21.856 M85.32,-12.768 L85.32,-13.312 C86.9013,-13.771 88.3827,-14.2403 89.764,-14.72 L89.992,-14.657 L89.992,-12.1585 C91.074,-13.1705 91.9279,-13.8504 92.5538,-14.1983 C93.1796,-14.5461 93.8637,-14.72 94.606,-14.72 C95.7873,-14.72 96.7163,-14.3008 97.393,-13.4625 C98.0697,-12.6242 98.408,-11.4515 98.408,-9.9445 L98.408,-2.5975 C98.408,-1.80617 98.5339,-1.27683 98.7858,-1.0095 C99.0376,-0.742167 99.5517,-0.565667 100.328,-0.48 L100.328,0 L93.704,0 L93.704,-0.48 C94.5017,-0.544 95.0317,-0.757833 95.2943,-1.1215 C95.5568,-1.48517 95.688,-2.16967 95.688,-3.175 L95.688,-9.88 C95.688,-11.9547 94.9138,-12.992 93.3655,-12.992 C92.8352,-12.992 92.3472,-12.8691 91.9017,-12.6233 C91.4562,-12.3774 90.8517,-11.891 90.088,-11.164 L90.088,-2.1485 C90.088,-1.57083 90.2351,-1.16442 90.5292,-0.92925 C90.8234,-0.694083 91.3697,-0.544333 92.168,-0.48 L92.168,0 L85.416,0 L85.416,-0.48 C86.2137,-0.544 86.7384,-0.731083 86.9903,-1.04125 C87.2421,-1.35142 87.368,-1.96633 87.368,-2.886 L87.368,-10.8425 C87.368,-11.6342 87.2827,-12.1743 87.112,-12.463 C86.9413,-12.7517 86.632,-12.896 86.184,-12.896 C85.7787,-12.896 85.4907,-12.8533 85.32,-12.768 M138.984,-21.184 L138.984,-20.576 C138.131,-20.4053 137.549,-20.192 137.24,-19.936 C136.931,-19.68 136.627,-19.136 136.328,-18.304 C134.557,-13.5467 133.363,-10.2827 132.744,-8.512 C132.125,-6.74133 131.144,-3.78667 129.8,0.352 L129.32,0.352 L124.2,-13.184 L119.272,0.352 L118.792,0.352 L112.616,-16.832 C112.083,-18.3253 111.608,-19.3013 111.192,-19.76 C110.776,-20.2187 110.152,-20.4907 109.32,-20.576 L109.32,-21.184 L117.16,-21.184 L117.16,-20.576 C116.349,-20.5333 115.8,-20.4427 115.512,-20.304 C115.224,-20.1653 115.08,-19.9147 115.08,-19.552 C115.08,-19.168 115.197,-18.6773 115.432,-18.08 L120.04,-6.048 L123.464,-15.072 L122.408,-17.696 C121.896,-18.976 121.459,-19.7707 121.096,-20.08 C120.733,-20.3893 120.093,-20.5547 119.176,-20.576 L119.176,-21.184 L127.72,-21.184 L127.72,-20.576 C126.077,-20.5547 125.256,-20.1813 125.256,-19.456 C125.256,-19.2213 125.544,-18.3573 126.12,-16.864 L130.344,-5.952 L134.344,-16.8 C134.685,-17.76 134.856,-18.56 134.856,-19.2 C134.856,-19.6267 134.691,-19.9413 134.36,-20.144 C134.029,-20.3467 133.459,-20.4907 132.648,-20.576 L132.648,-21.184 L138.984,-21.184 M144.088,-10.976 L144.088,-3.264 C144.088,-2.15467 144.214,-1.44 144.466,-1.12 C144.718,-0.8 145.307,-0.586667 146.232,-0.48 L146.232,0 L139.352,0 L139.352,-0.48 C140.255,-0.608 140.817,-0.821333 141.037,-1.12 C141.258,-1.41867 141.368,-2.13333 141.368,-3.264 L141.368,-18.336 C141.368,-19.0187 141.277,-19.4667 141.096,-19.68 C140.915,-19.8933 140.515,-20 139.896,-20 C139.747,-20 139.565,-19.9787 139.352,-19.936 L139.352,-20.448 C140.869,-20.8533 142.393,-21.3227 143.926,-21.856 L144.088,-21.76 L144.088,-12.032 C144.809,-12.992 145.536,-13.68 146.268,-14.096 C147,-14.512 147.833,-14.72 148.767,-14.72 C151.407,-14.72 152.728,-13.024 152.728,-9.632 L152.728,-3.264 C152.728,-2.15467 152.828,-1.456 153.027,-1.168 C153.226,-0.88 153.756,-0.650667 154.616,-0.48 L154.616,0 L147.864,0 L147.864,-0.48 C148.768,-0.565333 149.351,-0.778667 149.614,-1.12 C149.877,-1.46133 150.008,-2.176 150.008,-3.264 L150.008,-9.6 C150.008,-11.8613 149.212,-12.992 147.621,-12.992 C147.006,-12.992 146.427,-12.8373 145.886,-12.528 C145.345,-12.2187 144.746,-11.7013 144.088,-10.976 M156.998,-12.576 C156.535,-12.576 156.093,-12.544 155.672,-12.48 L155.672,-12.96 C157.165,-13.3867 158.818,-13.9733 160.631,-14.72 L160.76,-14.624 L160.76,-3.264 C160.76,-2.112 160.891,-1.38133 161.154,-1.072 C161.417,-0.762667 162.065,-0.565333 163.096,-0.48 L163.096,0 L155.512,0 L155.512,-0.48 C156.621,-0.544 157.32,-0.736 157.608,-1.056 C157.896,-1.376 158.04,-2.112 158.04,-3.264 L158.04,-10.688 C158.04,-11.392 157.961,-11.8827 157.803,-12.16 C157.645,-12.4373 157.377,-12.576 156.998,-12.576 M159.108,-21.856 C159.583,-21.856 159.983,-21.696 160.306,-21.376 C160.63,-21.056 160.792,-20.672 160.792,-20.224 C160.792,-19.7547 160.63,-19.3653 160.306,-19.056 C159.983,-18.7467 159.583,-18.592 159.108,-18.592 C158.657,-18.592 158.276,-18.752 157.964,-19.072 C157.652,-19.392 157.496,-19.776 157.496,-20.224 C157.496,-20.672 157.657,-21.056 157.98,-21.376 C158.302,-21.696 158.679,-21.856 159.108,-21.856 M172.576,-14.08 C172.597,-14.08 172.768,-14.1867 173.088,-14.4 L173.44,-14.4 L173.568,-10.048 L173.088,-10.048 C172.725,-11.4773 172.277,-12.4907 171.744,-13.088 C171.211,-13.6853 170.485,-13.984 169.568,-13.984 C168.843,-13.984 168.251,-13.7813 167.792,-13.376 C167.333,-12.9707 167.104,-12.448 167.104,-11.808 C167.104,-10.8907 167.563,-10.1653 168.48,-9.632 L171.936,-7.584 C172.896,-7.008 173.584,-6.42667 174,-5.84 C174.416,-5.25333 174.624,-4.56533 174.624,-3.776 C174.624,-2.66667 174.181,-1.70667 173.296,-0.896 C172.411,-0.0853333 171.349,0.32 170.112,0.32 C169.579,0.32 168.864,0.224 167.968,0.032 C167.072,-0.16 166.517,-0.256 166.304,-0.256 C165.984,-0.256 165.739,-0.128 165.568,0.128 L165.152,0.128 L165.152,-4.864 L165.664,-4.864 C166.005,-3.37067 166.411,-2.31467 166.88,-1.696 C167.563,-0.821333 168.512,-0.384 169.728,-0.384 C170.539,-0.384 171.184,-0.592 171.664,-1.008 C172.144,-1.424 172.384,-1.984 172.384,-2.688 C172.384,-3.648 171.829,-4.448 170.72,-5.088 L168.864,-6.144 C167.499,-6.912 166.533,-7.648 165.968,-8.352 C165.403,-9.056 165.12,-9.856 165.12,-10.752 C165.12,-11.904 165.531,-12.848 166.352,-13.584 C167.173,-14.32 168.213,-14.688 169.472,-14.688 C170.176,-14.688 170.837,-14.5867 171.456,-14.384 C172.075,-14.1813 172.448,-14.08 172.576,-14.08 M184.288,-14.4 L184.288,-13.44 L181.088,-13.44 L181.088,-4.288 C181.088,-3.28533 181.216,-2.55467 181.472,-2.096 C181.728,-1.63733 182.155,-1.408 182.752,-1.408 C183.413,-1.408 184.053,-1.78133 184.672,-2.528 L185.088,-2.176 C184.064,-0.512 182.784,0.32 181.248,0.32 C179.328,0.32 178.368,-1.041 178.368,-3.763 L178.368,-13.44 L176.702,-13.44 C176.618,-13.5 176.576,-13.57 176.576,-13.65 C176.576,-13.75 176.608,-13.83 176.672,-13.89 C176.736,-13.95 176.858,-14.035 177.039,-14.145 C177.22,-14.255 177.438,-14.4128 177.693,-14.6182 C177.948,-14.8237 178.299,-15.1968 178.746,-15.7375 C179.193,-16.2782 179.682,-16.9268 180.214,-17.6835 C180.559,-18.1812 180.775,-18.484 180.862,-18.592 C181.013,-18.592 181.088,-18.4512 181.088,-18.1695 L181.088,-14.4 L184.288,-14.4 M185.352,-19.936 L185.352,-20.448 C187.463,-20.96 189.159,-21.4293 190.439,-21.856 L190.568,-21.792 L190.568,-2.688 C190.568,-1.81333 190.71,-1.24267 190.994,-0.976 C191.278,-0.709333 191.926,-0.544 192.936,-0.48 L192.936,0 L185.384,0 L185.384,-0.48 C186.387,-0.565333 187.048,-0.757333 187.368,-1.056 C187.688,-1.35467 187.848,-1.93067 187.848,-2.784 L187.848,-18.048 C187.848,-18.7947 187.753,-19.3067 187.564,-19.584 C187.374,-19.8613 187.027,-20 186.521,-20 C186.1,-20 185.71,-19.9787 185.352,-19.936 M196.296,-8.864 C196.339,-7.54467 196.52,-6.40858 196.84,-5.45575 C197.16,-4.50292 197.576,-3.79092 198.088,-3.31975 C198.6,-2.84858 199.117,-2.5135 199.64,-2.3145 C200.163,-2.1155 200.712,-2.016 201.288,-2.016 C202.312,-2.016 203.203,-2.26733 203.96,-2.77 C204.717,-3.27267 205.48,-4.12083 206.248,-5.3145 L206.76,-5.0945 C206.099,-3.34383 205.181,-2.00375 204.008,-1.07425 C202.835,-0.14475 201.491,0.32 199.976,0.32 C198.141,0.32 196.653,-0.328667 195.512,-1.626 C194.371,-2.92333 193.8,-4.67633 193.8,-6.885 C193.8,-9.242 194.456,-11.1371 195.768,-12.5703 C197.08,-14.0034 198.717,-14.72 200.68,-14.72 C202.301,-14.72 203.56,-14.2347 204.456,-13.264 C205.352,-12.2933 205.917,-10.8267 206.152,-8.864 L196.296,-8.864 M196.36,-9.824 L202.888,-9.824 C202.675,-11.2107 202.344,-12.1707 201.896,-12.704 C201.448,-13.2373 200.733,-13.504 199.752,-13.504 C197.832,-13.504 196.701,-12.2773 196.36,-9.824 M216.248,-8.128 L224.12,-8.128 L224.12,-6.208 L216.248,-6.208 L216.248,-8.128 M246.096,-4.3985 C246.096,-5.39617 245.742,-6.28242 245.036,-7.05725 C244.328,-7.83208 243.471,-8.4955 242.464,-9.0475 C241.457,-9.5995 240.46,-10.1674 239.473,-10.7513 C238.485,-11.3351 237.641,-12.0834 236.94,-12.9962 C236.239,-13.9091 235.888,-14.9705 235.888,-16.1805 C235.888,-17.8242 236.435,-19.1597 237.53,-20.187 C238.625,-21.2143 239.916,-21.728 241.404,-21.728 C242.304,-21.728 243.279,-21.5334 244.329,-21.1442 C245.379,-20.7551 246.011,-20.5605 246.226,-20.5605 C246.785,-20.5605 247.13,-20.9497 247.26,-21.728 L247.938,-21.728 L248.649,-14.912 L247.841,-14.912 C247.326,-16.7567 246.537,-18.1192 245.475,-18.9995 C244.413,-19.8798 243.238,-20.32 241.951,-20.32 C240.965,-20.32 240.161,-20.044 239.54,-19.492 C238.919,-18.94 238.608,-18.2288 238.608,-17.3585 C238.608,-16.5095 238.972,-15.7028 239.701,-14.9385 C240.429,-14.1742 241.64,-13.325 243.332,-12.391 C245.455,-11.2657 246.99,-10.1564 247.938,-9.06325 C248.886,-7.97008 249.36,-6.76533 249.36,-5.449 C249.36,-3.78567 248.726,-2.387 247.459,-1.253 C246.191,-0.119 244.634,0.448 242.786,0.448 C241.719,0.448 240.637,0.251583 239.538,-0.14125 C238.439,-0.534083 237.762,-0.7305 237.506,-0.7305 C237.275,-0.7305 237.076,-0.6205 236.907,-0.4005 C236.739,-0.1805 236.645,0.0916667 236.624,0.416 L235.92,0.416 L234.96,-6.4365 L235.696,-6.4365 C236.484,-4.5045 237.399,-3.08208 238.441,-2.16925 C239.484,-1.25642 240.718,-0.8 242.143,-0.8 C243.321,-0.8 244.275,-1.13433 245.003,-1.803 C245.732,-2.47167 246.096,-3.33683 246.096,-4.3985 M251.8,-6.822 C251.8,-9.18833 252.5,-11.0963 253.899,-12.5458 C255.298,-13.9953 256.938,-14.72 258.817,-14.72 C260.133,-14.72 261.265,-14.3947 262.215,-13.744 C263.165,-13.0933 263.64,-12.32 263.64,-11.424 C263.64,-11.0613 263.495,-10.7467 263.206,-10.48 C262.917,-10.2133 262.566,-10.08 262.152,-10.08 C261.45,-10.08 260.965,-10.5665 260.696,-11.5395 L260.505,-12.237 C260.335,-12.8293 260.123,-13.2313 259.868,-13.4428 C259.613,-13.6542 259.2,-13.76 258.627,-13.76 C257.332,-13.76 256.286,-13.2455 255.49,-12.2165 C254.694,-11.1875 254.296,-9.856 254.296,-8.222 C254.296,-6.39733 254.758,-4.90683 255.681,-3.7505 C256.604,-2.59417 257.788,-2.016 259.231,-2.016 C260.128,-2.016 260.899,-2.23875 261.545,-2.68425 C262.191,-3.12975 262.89,-3.90417 263.64,-5.0075 L264.088,-4.7215 C263.875,-4.2935 263.689,-3.94033 263.531,-3.662 C263.373,-3.38367 263.09,-2.96617 262.682,-2.4095 C262.274,-1.85283 261.871,-1.40325 261.474,-1.06075 C261.076,-0.71825 260.553,-0.4025 259.904,-0.1135 C259.255,0.1755 258.585,0.32 257.894,0.32 C256.119,0.32 254.66,-0.34725 253.516,-1.68175 C252.372,-3.01625 251.8,-4.72967 251.8,-6.822 M265.96,-3.16 C265.96,-3.542 266.002,-3.8975 266.086,-4.2265 C266.17,-4.5555 266.317,-4.86325 266.527,-5.14975 C266.737,-5.43625 266.936,-5.69625 267.125,-5.92975 C267.314,-6.16325 267.597,-6.402 267.975,-6.646 C268.353,-6.89 268.668,-7.09158 268.92,-7.25075 C269.172,-7.40992 269.555,-7.60092 270.069,-7.82375 C270.583,-8.04658 270.977,-8.21633 271.25,-8.333 C271.523,-8.44967 271.953,-8.62475 272.541,-8.85825 C273.129,-9.09175 273.559,-9.26167 273.832,-9.368 L273.832,-11.3095 C273.832,-13.0712 273.027,-13.952 271.416,-13.952 C270.781,-13.952 270.241,-13.7973 269.796,-13.488 C269.351,-13.1787 269.128,-12.8107 269.128,-12.384 C269.128,-12.2133 269.155,-11.9787 269.208,-11.68 C269.261,-11.3813 269.288,-11.1893 269.288,-11.104 C269.288,-10.7413 269.142,-10.4267 268.849,-10.16 C268.556,-9.89333 268.214,-9.76 267.824,-9.76 C267.451,-9.76 267.121,-9.89867 266.836,-10.176 C266.551,-10.4533 266.408,-10.7733 266.408,-11.136 C266.408,-12.1387 266.93,-12.9867 267.973,-13.68 C269.017,-14.3733 270.302,-14.72 271.829,-14.72 C273.537,-14.72 274.714,-14.3005 275.36,-13.4615 C276.005,-12.6225 276.328,-11.3428 276.328,-9.6225 L276.328,-3.4145 C276.328,-2.71417 276.397,-2.23133 276.536,-1.966 C276.675,-1.70067 276.925,-1.568 277.288,-1.568 C277.736,-1.568 278.205,-1.76967 278.696,-2.173 L278.696,-1.335 C278.141,-0.695 277.656,-0.259167 277.24,-0.0275 C276.824,0.204167 276.356,0.32 275.835,0.32 C275.198,0.32 274.731,0.133917 274.433,-0.23825 C274.135,-0.610417 273.945,-1.2235 273.863,-2.0775 C272.041,-0.479167 270.495,0.32 269.224,0.32 C268.271,0.32 267.488,-0.00525 266.877,-0.65575 C266.266,-1.30625 265.96,-2.141 265.96,-3.16 M273.832,-3.9875 L273.832,-8.6035 C271.924,-7.90317 270.588,-7.22408 269.825,-6.56625 C269.062,-5.90842 268.68,-5.1125 268.68,-4.1785 C268.68,-3.3085 268.892,-2.66125 269.317,-2.23675 C269.741,-1.81225 270.197,-1.6 270.685,-1.6 C271.406,-1.6 272.179,-1.844 273.005,-2.332 C273.344,-2.523 273.567,-2.72467 273.673,-2.937 C273.779,-3.14933 273.832,-3.4995 273.832,-3.9875 M279.352,-19.936 L279.352,-20.448 C281.463,-20.96 283.159,-21.4293 284.438,-21.856 L284.568,-21.792 L284.568,-2.688 C284.568,-1.81333 284.71,-1.24267 284.994,-0.976 C285.278,-0.709333 285.926,-0.544 286.936,-0.48 L286.936,0 L279.384,0 L279.384,-0.48 C280.387,-0.565333 281.048,-0.757333 281.368,-1.056 C281.688,-1.35467 281.848,-1.93067 281.848,-2.784 L281.848,-18.048 C281.848,-18.7947 281.753,-19.3067 281.564,-19.584 C281.374,-19.8613 281.027,-20 280.521,-20 C280.1,-20 279.71,-19.9787 279.352,-19.936 M290.296,-8.864 C290.339,-7.54467 290.52,-6.40858 290.84,-5.45575 C291.16,-4.50292 291.576,-3.79092 292.088,-3.31975 C292.6,-2.84858 293.117,-2.5135 293.64,-2.3145 C294.163,-2.1155 294.712,-2.016 295.288,-2.016 C296.312,-2.016 297.203,-2.26733 297.96,-2.77 C298.717,-3.27267 299.48,-4.12083 300.248,-5.3145 L300.76,-5.0945 C300.099,-3.34383 299.181,-2.00375 298.008,-1.07425 C296.835,-0.14475 295.491,0.32 293.976,0.32 C292.141,0.32 290.653,-0.328667 289.512,-1.626 C288.371,-2.92333 287.8,-4.67633 287.8,-6.885 C287.8,-9.242 288.456,-11.1371 289.768,-12.5703 C291.08,-14.0034 292.717,-14.72 294.68,-14.72 C296.301,-14.72 297.56,-14.2347 298.456,-13.264 C299.352,-12.2933 299.917,-10.8267 300.152,-8.864 L290.296,-8.864 M290.36,-9.824 L296.888,-9.824 C296.675,-11.2107 296.344,-12.1707 295.896,-12.704 C295.448,-13.2373 294.733,-13.504 293.752,-13.504 C291.832,-13.504 290.701,-12.2773 290.36,-9.824 M316.92,-14.72 C318.982,-14.72 320.679,-14.0371 322.01,-12.6713 C323.342,-11.3054 324.008,-9.57667 324.008,-7.485 C324.008,-5.26733 323.315,-3.41208 321.93,-1.91925 C320.545,-0.426417 318.854,0.32 316.856,0.32 C314.858,0.32 313.183,-0.399917 311.83,-1.83975 C310.477,-3.27958 309.8,-5.07683 309.8,-7.2315 C309.8,-9.42883 310.46,-11.2263 311.781,-12.6238 C313.102,-14.0213 314.815,-14.72 316.92,-14.72 M312.744,-8.7845 C312.744,-6.52383 313.158,-4.60125 313.987,-3.01675 C314.816,-1.43225 315.9,-0.64 317.238,-0.64 C318.429,-0.64 319.364,-1.14708 320.044,-2.16125 C320.724,-3.17542 321.064,-4.58033 321.064,-6.376 C321.064,-8.552 320.639,-10.3267 319.789,-11.7 C318.939,-13.0733 317.844,-13.76 316.505,-13.76 C315.379,-13.76 314.471,-13.3057 313.78,-12.3972 C313.089,-11.4888 312.744,-10.2845 312.744,-8.7845 M335.624,-18.624 C335.283,-18.624 334.989,-18.7434 334.744,-18.9823 C334.499,-19.2211 334.307,-19.491 334.168,-19.792 C334.029,-20.093 333.816,-20.3629 333.528,-20.6018 C333.24,-20.8406 332.893,-20.96 332.488,-20.96 C331.272,-20.96 330.664,-20.0107 330.664,-18.112 L330.664,-14.4 L334.568,-14.4 L334.568,-13.44 L330.696,-13.44 L330.696,-3.342 C330.696,-2.14133 330.865,-1.37492 331.202,-1.04275 C331.54,-0.710583 332.353,-0.523 333.64,-0.48 L333.64,0 L325.32,0 L325.32,-0.48 C326.472,-0.544333 327.203,-0.742667 327.512,-1.075 C327.821,-1.40733 327.976,-2.163 327.976,-3.342 L327.976,-13.44 L325.384,-13.44 L325.384,-14.4 L327.976,-14.4 C328.019,-16.81 328.473,-18.6658 329.336,-19.9675 C330.2,-21.2692 331.634,-21.92 333.64,-21.92 C334.6,-21.92 335.395,-21.7333 336.024,-21.36 C336.653,-20.9867 336.968,-20.512 336.968,-19.936 C336.968,-19.5733 336.835,-19.264 336.568,-19.008 C336.301,-18.752 335.987,-18.624 335.624,-18.624 M357.652,-20.352 C356.439,-20.352 355.364,-20.1333 354.428,-19.6958 C353.492,-19.2583 352.737,-18.6982 352.162,-18.0155 C351.587,-17.3328 351.119,-16.5328 350.757,-15.6153 C350.396,-14.6978 350.146,-13.8176 350.007,-12.9748 C349.869,-12.1319 349.8,-11.2837 349.8,-10.43 C349.8,-7.44567 350.55,-5.08925 352.05,-3.36075 C353.55,-1.63225 355.599,-0.768 358.195,-0.768 C359.344,-0.768 360.339,-0.955833 361.179,-1.3315 C362.02,-1.70717 362.44,-2.15267 362.44,-2.668 L362.44,-7.8855 C362.44,-9.08783 362.284,-9.84467 361.972,-10.156 C361.66,-10.4673 360.931,-10.666 359.784,-10.752 L359.784,-11.328 L367.784,-11.328 L367.784,-10.752 C366.912,-10.666 366.348,-10.4673 366.09,-10.156 C365.833,-9.84467 365.704,-9.21667 365.704,-8.272 L365.704,-1.734 C365.052,-1.19367 363.874,-0.694917 362.168,-0.23775 C360.463,0.219417 358.915,0.448 357.524,0.448 C356.564,0.448 355.603,0.352 354.642,0.16 C353.68,-0.032 352.677,-0.383917 351.63,-0.89575 C350.584,-1.40758 349.665,-2.05275 348.875,-2.83125 C348.085,-3.60975 347.428,-4.6495 346.905,-5.9505 C346.382,-7.2515 346.12,-8.73383 346.12,-10.3975 C346.12,-13.6435 347.151,-16.3168 349.212,-18.4173 C351.273,-20.5178 353.906,-21.568 357.11,-21.568 C358.352,-21.568 359.578,-21.4008 360.788,-21.0665 C361.998,-20.7322 362.699,-20.565 362.892,-20.565 C363.263,-20.565 363.587,-20.6612 363.865,-20.8538 C364.143,-21.0463 364.34,-21.2843 364.456,-21.568 L365.16,-21.568 L365.416,-14.816 L364.68,-14.816 C363.983,-16.4993 363.111,-17.8428 362.065,-18.8465 C361.019,-19.8502 359.548,-20.352 357.652,-20.352 "/>
</g>

<g fill="none" stroke="#000000" stroke-opacity="1" stroke-width="1" stroke-linecap="square" stroke-linejoin="bevel" transform="matrix(3.125,0,0,3.125,118.11,208.735)"
font-family="FreeSerif" font-size="32" font-weight="400" font-style="normal" 
>
</g>

<g fill="none" stroke="#000000" stroke-opacity="1" stroke-width="0.533334" stroke-linecap="butt" stroke-linejoin="bevel" transform="matrix(3.125,0,0,3.125,1294.34,472.277)"
font-family="FreeSerif" font-size="32" font-weight="400" font-style="normal" 
>
<polyline fill="none" vector-effect="none" points="0,0 341.936,0 " />
<polyline fill="none" vector-effect="none" points="0,6.66667 341.936,6.66667 " />
<polyline fill="none" vector-effect="none" points="0,13.3333 341.936,13.3333 " />
<polyline fill="none" vector-effect="none" points="0,20 341.936,20 " />
<polyline fill="none" vector-effect="none" points="0,26.6667 341.936,26.6667 " />
</g>

<g fill="none" stroke="#000000" stroke-opacity="1" stroke-width="0.533334" stroke-linecap="butt" stroke-linejoin="bevel" transform="matrix(3.125,0,0,3.125,118.11,472.277)"
font-family="FreeSerif" font-size="32" font-weight="400" font-style="normal" 
>
<polyline fill="none" vector-effect="none" points="0,0 376.393,0 " />
<polyline fill="none" vector-effect="none" points="0,6.66667 376.393,6.66667 " />
<polyline fill="none" vector-effect="none" points="0,13.3333 376.393,13.3333 " />
<polyline fill="none" vector-effect="none" points="0,20 376.393,20 " />
<polyline fill="none" vector-effect="none" points="0,26.6667 376.393,26.6667 " />
</g>

<g fill="none" stroke="#000000" stroke-opacity="1" stroke-width="1.06667" stroke-linecap="butt" stroke-linejoin="bevel" transform="matrix(3.125,0,0,3.125,2340.81,472.277)"
font-family="FreeSerif" font-size="32" font-weight="400" font-style="normal" 
>
<polyline fill="none" vector-effect="none" points="0.533334,0 0.533334,26.6667 " />
</g>

<g fill="none" stroke="#000000" stroke-opacity="1" stroke-width="3.33334" stroke-linecap="butt" stroke-linejoin="bevel" transform="matrix(3.125,0,0,3.125,2340.81,472.277)"
font-family="FreeSerif" font-size="32" font-weight="400" font-style="normal" 
>
<polyline fill="none" vector-effect="none" points="5.4,0 5.4,26.6667 " />
</g>

<g fill="none" stroke="#000000" stroke-opacity="1" stroke-width="1.06667" stroke-linecap="butt" stroke-linejoin="bevel" transform="matrix(3.125,0,0,3.125,1291.01,472.277)"
font-family="FreeSerif" font-size="32" font-weight="400" font-style="normal" 
>
<polyline fill="none" vector-effect="none" points="0.533334,0 0.533334,26.6667 " />
</g>

<g fill="none" stroke="#000000" stroke-opacity="1" stroke-width="1" stroke-linecap="square" stroke-linejoin="bevel" transform="matrix(3.125,0,0,3.125,1799.21,430.61)"
font-family="MScore" font-size="27" font-weight="400" font-style="normal" 
>
</g>

<g fill="#000000" fill-opacity="1" stroke="none" transform="matrix(3.125,0,0,3.125,1799.21,430.61)"
font-family="MScore" font-size="27" font-weight="400" font-style="normal" 
>
<path vector-effect="none" fill-rule="nonzero" d="M5.82715,8.41113 C5.82715,8.74512 5.66016,8.91211 5.32617,8.91211 C4.99219,8.91211 4.8252,8.74512 4.8252,8.41113 L4.8252,4.50879 L2.58398,5.35254 L2.58398,9.62402 C2.58398,9.95801 2.41699,10.125 2.08301,10.125 C1.74902,10.125 1.58203,9.95801 1.58203,9.62402 L1.58203,5.69531 L0.738281,6.01172 C0.720703,6.0293 0.650391,6.03809 0.527344,6.03809 C0.386719,6.03809 0.263672,5.98535 0.158203,5.87988 C0.0527344,5.77441 0,5.65137 0,5.51074 L0,3.87598 C0,3.6123 0.114258,3.44531 0.342773,3.375 L1.58203,2.95312 L1.58203,-1.37109 L0.738281,-1.08105 C0.720703,-1.06348 0.650391,-1.05469 0.527344,-1.05469 C0.386719,-1.05469 0.263672,-1.10742 0.158203,-1.21289 C0.0527344,-1.31836 0,-1.44141 0,-1.58203 L0,-3.2168 C0,-3.46289 0.114258,-3.62109 0.342773,-3.69141 L1.58203,-4.16602 L1.58203,-8.41113 C1.58203,-8.74512 1.74902,-8.91211 2.08301,-8.91211 C2.41699,-8.91211 2.58398,-8.74512 2.58398,-8.41113 L2.58398,-4.50879 L4.8252,-5.35254 L4.8252,-9.62402 C4.8252,-9.95801 4.99219,-10.125 5.32617,-10.125 C5.66016,-10.125 5.82715,-9.95801 5.82715,-9.62402 L5.82715,-5.69531 L6.69727,-6.01172 C6.71484,-6.0293 6.77637,-6.03809 6.88184,-6.03809 C7.00488,-6.03809 7.13672,-5.98535 7.27734,-5.87988 C7.38281,-5.77441 7.43555,-5.65137 7.43555,-5.51074 L7.43555,-3.87598 C7.43555,-3.62988 7.3125,-3.46289 7.06641,-3.375 L5.82715,-2.95312 L5.82715,1.37109 L6.69727,1.08105 C6.71484,1.06348 6.77637,1.05469 6.88184,1.05469 C7.00488,1.05469 7.13672,1.10742 7.27734,1.21289 C7.38281,1.31836 7.43555,1.44141 7.43555,1.58203 L7.43555,3.2168 C7.43555,3.44531 7.3125,3.60352 7.06641,3.69141 L5.82715,4.16602 L5.82715,8.41113 M4.8252,-2.55762 L2.58398,-1.7666 L2.58398,2.55762 L4.8252,1.7666 L4.8252,-2.55762"/>
</g>

<g fill="none" stroke="#000000" stroke-opacity="1" stroke-width="1" stroke-linecap="square" stroke-linejoin="bevel" transform="matrix(3.125,0,0,3.125,1799.21,430.61)"
font-family="MScore" font-size="27" font-weight="400" font-style="normal" 
>
</g>

<g fill="none" stroke="#000000" stroke-opacity="1" stroke-width="1" stroke-linecap="square" stroke-linejoin="bevel" transform="matrix(3.125,0,0,3.125,767.665,503.527)"
font-family="MScore" font-size="27" font-weight="400" font-style="normal" 
>
</g>

<g fill="#000000" fill-opacity="1" stroke="none" transform="matrix(3.125,0,0,3.125,767.665,503.527)"
font-family="MScore" font-size="27" font-weight="400" font-style="normal" 
>
<path vector-effect="none" fill-rule="nonzero" d="M5.82715,8.41113 C5.82715,8.74512 5.66016,8.91211 5.32617,8.91211 C4.99219,8.91211 4.8252,8.74512 4.8252,8.41113 L4.8252,4.50879 L2.58398,5.35254 L2.58398,9.62402 C2.58398,9.95801 2.41699,10.125 2.08301,10.125 C1.74902,10.125 1.58203,9.95801 1.58203,9.62402 L1.58203,5.69531 L0.738281,6.01172 C0.720703,6.0293 0.650391,6.03809 0.527344,6.03809 C0.386719,6.03809 0.263672,5.98535 0.158203,5.87988 C0.0527344,5.77441 0,5.65137 0,5.51074 L0,3.87598 C0,3.6123 0.114258,3.44531 0.342773,3.375 L1.58203,2.95312 L1.58203,-1.37109 L0.738281,-1.08105 C0.720703,-1.06348 0.650391,-1.05469 0.527344,-1.05469 C0.386719,-1.05469 0.263672,-1.10742 0.158203,-1.21289 C0.0527344,-1.31836 0,-1.44141 0,-1.58203 L0,-3.2168 C0,-3.46289 0.114258,-3.62109 0.342773,-3.69141 L1.58203,-4.16602 L1.58203,-8.41113 C1.58203,-8.74512 1.74902,-8.91211 2.08301,-8.91211 C2.41699,-8.91211 2.58398,-8.74512 2.58398,-8.41113 L2.58398,-4.50879 L4.8252,-5.35254 L4.8252,-9.62402 C4.8252,-9.95801 4.99219,-10.125 5.32617,-10.125 C5.66016,-10.125 5.82715,-9.95801 5.82715,-9.62402 L5.82715,-5.69531 L6.69727,-6.01172 C6.71484,-6.0293 6.77637,-6.03809 6.88184,-6.03809 C7.00488,-6.03809 7.13672,-5.98535 7.27734,-5.87988 C7.38281,-5.77441 7.43555,-5.65137 7.43555,-5.51074 L7.43555,-3.87598 C7.43555,-3.62988 7.3125,-3.46289 7.06641,-3.375 L5.82715,-2.95312 L5.82715,1.37109 L6.69727,1.08105 C6.71484,1.06348 6.77637,1.05469 6.88184,1.05469 C7.00488,1.05469 7.13672,1.10742 7.27734,1.21289 C7.38281,1.31836 7.43555,1.44141 7.43555,1.58203 L7.43555,3.2168 C7.43555,3.44531 7.3125,3.60352 7.06641,3.69141 L5.82715,4.16602 L5.82715,8.41113 M4.8252,-2.55762 L2.58398,-1.7666 L2.58398,2.55762 L4.8252,1.7666 L4.8252,-2.55762"/>
</g>

<g fill="none" stroke="#000000" stroke-opacity="1" stroke-width="1" stroke-linecap="square" stroke-linejoin="bevel" transform="matrix(3.125,0,0,3.125,767.665,503.527)"
font-family="MScore" font-size="27" font-weight="400" font-style="normal" 
>
</g>

<g fill="none" stroke="#000000" stroke-opacity="1" stroke-width="0.866667" stroke-linecap="round" stroke-linejoin="bevel" transform="matrix(3.125,0,0,3.125,1832.41,430.61)"
font-family="MScore" font-size="27" font-weight="400" font-style="normal" 
>
<polyline fill="none" vector-effect="none" points="0,1.25209 0,26.6667 " />
</g>

<g fill="none" stroke="#000000" stroke-opacity="1" stroke-width="0.866667" stroke-linecap="round" stroke-linejoin="bevel" transform="matrix(3.125,0,0,3.125,1577.53,430.61)"
font-family="MScore" font-size="27" font-weight="400" font-style="normal" 
>
<polyline fill="none" vector-effect="none" points="0,1.25209 0,26.6667 " />
</g>

<g fill="none" stroke="#000000" stroke-opacity="1" stroke-width="0.866667" stroke-linecap="round" stroke-linejoin="bevel" transform="matrix(3.125,0,0,3.125,796.699,503.527)"
font-family="MScore" font-size="27" font-weight="400" font-style="normal" 
>
<polyline fill="none" vector-effect="none" points="0,1.25209 0,21.6667 " />
</g>

<g fill="none" stroke="#000000" stroke-opacity="1" stroke-width="0.866667" stroke-linecap="round" stroke-linejoin="bevel" transform="matrix(3.125,0,0,3.125,548.868,503.527)"
font-family="MScore" font-size="27" font-weight="400" font-style="normal" 
>
<polyline fill="none" vector-effect="none" points="0,1.25209 0,21.6667 " />
</g>

<g fill="none" stroke="#000000" stroke-opacity="1" stroke-width="1.06667" stroke-linecap="square" stroke-linejoin="bevel" transform="matrix(3.125,0,0,3.125,1824.8,430.61)"
font-family="MScore" font-size="27" font-weight="400" font-style="normal" 
>
<polyline fill="none" vector-effect="none" points="0,0 12.7875,0 " />
</g>

<g fill="none" stroke="#000000" stroke-opacity="1" stroke-width="1.06667" stroke-linecap="square" stroke-linejoin="bevel" transform="matrix(3.125,0,0,3.125,1824.8,451.444)"
font-family="MScore" font-size="27" font-weight="400" font-style="normal" 
>
<polyline fill="none" vector-effect="none" points="0,0 12.7875,0 " />
</g>

<g fill="none" stroke="#000000" stroke-opacity="1" stroke-width="1.06667" stroke-linecap="square" stroke-linejoin="bevel" transform="matrix(3.125,0,0,3.125,1569.92,430.61)"
font-family="MScore" font-size="27" font-weight="400" font-style="normal" 
>
<polyline fill="none" vector-effect="none" points="0,0 12.7875,0 " />
</g>

<g fill="none" stroke="#000000" stroke-opacity="1" stroke-width="1.06667" stroke-linecap="square" stroke-linejoin="bevel" transform="matrix(3.125,0,0,3.125,1569.92,451.444)"
font-family="MScore" font-size="27" font-weight="400" font-style="normal" 
>
<polyline fill="none" vector-effect="none" points="0,0 12.7875,0 " />
</g>

<g fill="none" stroke="#000000" stroke-opacity="1" stroke-width="1" stroke-linecap="square" stroke-linejoin="bevel" transform="matrix(3.125,0,0,3.125,1831.05,430.61)"
font-family="MScore" font-size="27" font-weight="400" font-style="normal" 
>
</g>

<g fill="#000000" fill-opacity="1" stroke="none" transform="matrix(3.125,0,0,3.125,1831.05,430.61)"
font-family="MScore" font-size="27" font-weight="400" font-style="normal" 
>
<path vector-effect="none" fill-rule="nonzero" d="M5.93262,-3.71777 C6.77637,-3.71777 7.48828,-3.49805 8.06836,-3.05859 C8.61328,-2.58398 8.88574,-1.98633 8.88574,-1.26562 C8.88574,-0.0527344 8.26172,1.08105 7.01367,2.13574 C5.74805,3.19043 4.39453,3.71777 2.95312,3.71777 C2.10938,3.71777 1.39746,3.49805 0.817383,3.05859 C0.272461,2.58398 0,1.98633 0,1.26562 C0,0.0527344 0.632812,-1.08105 1.89844,-2.13574 C3.12891,-3.19043 4.47363,-3.71777 5.93262,-3.71777 "/>
</g>

<g fill="none" stroke="#000000" stroke-opacity="1" stroke-width="1" stroke-linecap="square" stroke-linejoin="bevel" transform="matrix(3.125,0,0,3.125,1831.05,430.61)"
font-family="MScore" font-size="27" font-weight="400" font-style="normal" 
>
</g>

<g fill="none" stroke="#000000" stroke-opacity="1" stroke-width="1" stroke-linecap="square" stroke-linejoin="bevel" transform="matrix(3.125,0,0,3.125,1576.17,430.61)"
font-family="MScore" font-size="27" font-weight="400" font-style="normal" 
>
</g>

<g fill="#000000" fill-opacity="1" stroke="none" transform="matrix(3.125,0,0,3.125,1576.17,430.61)"
font-family="MScore" font-size="27" font-weight="400" font-style="normal" 
>
<path vector-effect="none" fill-rule="nonzero" d="M5.93262,-3.71777 C6.77637,-3.71777 7.48828,-3.49805 8.06836,-3.05859 C8.61328,-2.58398 8.88574,-1.98633 8.88574,-1.26562 C8.88574,-0.0527344 8.26172,1.08105 7.01367,2.13574 C5.74805,3.19043 4.39453,3.71777 2.95312,3.71777 C2.10938,3.71777 1.39746,3.49805 0.817383,3.05859 C0.272461,2.58398 0,1.98633 0,1.26562 C0,0.0527344 0.632812,-1.08105 1.89844,-2.13574 C3.12891,-3.19043 4.47363,-3.71777 5.93262,-3.71777 "/>
</g>

<g fill="none" stroke="#000000" stroke-opacity="1" stroke-width="1" stroke-linecap="square" stroke-linejoin="bevel" transform="matrix(3.125,0,0,3.125,1576.17,430.61)"
font-family="MScore" font-size="27" font-weight="400" font-style="normal" 
>
</g>

<g fill="none" stroke="#000000" stroke-opacity="1" stroke-width="1" stroke-linecap="square" stroke-linejoin="bevel" transform="matrix(3.125,0,0,3.125,795.344,503.527)"
font-family="MScore" font-size="27" font-weight="400" font-style="normal" 
>
</g>

<g fill="#000000" fill-opacity="1" stroke="none" transform="matrix(3.125,0,0,3.125,795.344,503.527)"
font-family="MScore" font-size="27" font-weight="400" font-style="normal" 
>
<path vector-effect="none" fill-rule="nonzero" d="M5.93262,-3.71777 C6.77637,-3.71777 7.48828,-3.49805 8.06836,-3.05859 C8.61328,-2.58398 8.88574,-1.98633 8.88574,-1.26562 C8.88574,-0.0527344 8.26172,1.08105 7.01367,2.13574 C5.74805,3.19043 4.39453,3.71777 2.95312,3.71777 C2.10938,3.71777 1.39746,3.49805 0.817383,3.05859 C0.272461,2.58398 0,1.98633 0,1.26562 C0,0.0527344 0.632812,-1.08105 1.89844,-2.13574 C3.12891,-3.19043 4.47363,-3.71777 5.93262,-3.71777 "/>
</g>

<g fill="none" stroke="#000000" stroke-opacity="1" stroke-width="1" stroke-linecap="square" stroke-linejoin="bevel" transform="matrix(3.125,0,0,3.125,795.344,503.527)"
font-family="MScore" font-size="27" font-weight="400" font-style="normal" 
>
</g>

<g fill="none" stroke="#000000" stroke-opacity="1" stroke-width="1" stroke-linecap="square" stroke-linejoin="bevel" transform="matrix(3.125,0,0,3.125,547.513,503.527)"
font-family="MScore" font-size="27" font-weight="400" font-style="normal" 
>
</g>

<g fill="#000000" fill-opacity="1" stroke="none" transform="matrix(3.125,0,0,3.125,547.513,503.527)"
font-family="MScore" font-size="27" font-weight="400" font-style="normal" 
>
<path vector-effect="none" fill-rule="nonzero" d="M5.93262,-3.71777 C6.77637,-3.71777 7.48828,-3.49805 8.06836,-3.05859 C8.61328,-2.58398 8.88574,-1.98633 8.88574,-1.26562 C8.88574,-0.0527344 8.26172,1.08105 7.01367,2.13574 C5.74805,3.19043 4.39453,3.71777 2.95312,3.71777 C2.10938,3.71777 1.39746,3.49805 0.817383,3.05859 C0.272461,2.58398 0,1.98633 0,1.26562 C0,0.0527344 0.632812,-1.08105 1.89844,-2.13574 C3.12891,-3.19043 4.47363,-3.71777 5.93262,-3.71777 "/>
</g>

<g fill="none" stroke="#000000" stroke-opacity="1" stroke-width="1" stroke-linecap="square" stroke-linejoin="bevel" transform="matrix(3.125,0,0,3.125,547.513,503.527)"
font-family="MScore" font-size="27" font-weight="400" font-style="normal" 
>
</g>

<g fill="none" stroke="#000000" stroke-opacity="1" stroke-width="1" stroke-linecap="square" stroke-linejoin="bevel" transform="matrix(3.125,0,0,3.125,131.444,534.777)"
font-family="MScore" font-size="27" font-weight="400" font-style="normal" 
>
</g>

<g fill="#000000" fill-opacity="1" stroke="none" transform="matrix(3.125,0,0,3.125,131.444,534.777)"
font-family="MScore" font-size="27" font-weight="400" font-style="normal" 
>
<path vector-effect="none" fill-rule="nonzero" d="M9.91406,-6.9082 C9.91406,-6.9082 9.9668,-6.9082 10.0723,-6.9082 C10.1426,-6.92578 10.2041,-6.93457 10.2568,-6.93457 C12.2256,-6.93457 13.8428,-6.24023 15.1084,-4.85156 C16.374,-3.48047 17.0068,-1.88086 17.0068,-0.0527344 C17.0068,2.21484 16.0664,4.06055 14.1855,5.48438 C13.6934,5.87109 13.0518,6.1875 12.2607,6.43359 C12.3486,7.57617 12.3926,8.49902 12.3926,9.20215 C12.3926,9.34277 12.375,9.85254 12.3398,10.7314 C12.2695,12.3662 11.707,13.7812 10.6523,14.9766 C9.63281,16.1543 8.36719,16.7432 6.85547,16.7432 C5.43164,16.7432 4.21875,16.2422 3.2168,15.2402 C2.21484,14.2207 1.71387,12.9902 1.71387,11.5488 C1.71387,10.793 2.00391,10.1514 2.58398,9.62402 C3.18164,9.09668 3.87598,8.83301 4.66699,8.83301 C5.37012,8.83301 5.95898,9.10547 6.43359,9.65039 C6.92578,10.1602 7.17188,10.793 7.17188,11.5488 C7.17188,12.2344 6.92578,12.8232 6.43359,13.3154 C5.94141,13.8076 5.35254,14.0537 4.66699,14.0537 C4.38574,14.0537 4.11328,14.001 3.84961,13.8955 C4.62305,15.0381 5.65137,15.6094 6.93457,15.6094 C8.14746,15.6094 9.14062,15.1172 9.91406,14.1328 C10.7227,13.1133 11.1621,11.9268 11.2324,10.5732 C11.2676,9.72949 11.2852,9.24609 11.2852,9.12305 C11.2852,8.13867 11.25,7.33008 11.1797,6.69727 C10.3008,6.83789 9.51855,6.9082 8.83301,6.9082 C6.38965,6.9082 4.30664,5.94141 2.58398,4.00781 C0.896484,2.05664 0.0527344,-0.263672 0.0527344,-2.95312 C0.0527344,-3.51562 0.105469,-4.08691 0.210938,-4.66699 C0.316406,-5.1416 0.448242,-5.66016 0.606445,-6.22266 C0.694336,-6.53906 0.931641,-7.04883 1.31836,-7.75195 C1.45898,-7.96289 1.61719,-8.22656 1.79297,-8.54297 C1.96875,-8.85938 2.0918,-9.07031 2.16211,-9.17578 C2.33789,-9.52734 2.68066,-10.002 3.19043,-10.5996 C3.33105,-10.7578 3.47607,-10.9336 3.62549,-11.127 C3.7749,-11.3203 3.90234,-11.4785 4.00781,-11.6016 C4.11328,-11.7246 4.19238,-11.8213 4.24512,-11.8916 C4.29785,-11.9619 4.69336,-12.4277 5.43164,-13.2891 C5.60742,-13.4648 5.77881,-13.6538 5.9458,-13.856 C6.11279,-14.0581 6.24902,-14.2163 6.35449,-14.3306 C6.45996,-14.4448 6.53906,-14.5283 6.5918,-14.5811 C5.95898,-16.6729 5.56348,-18.3428 5.40527,-19.5908 C5.28223,-20.5928 5.2207,-21.9639 5.2207,-23.7041 C5.2207,-25.2334 5.57227,-26.666 6.27539,-28.002 C6.96094,-29.3906 7.91895,-30.5244 9.14941,-31.4033 C9.2373,-31.4561 9.3252,-31.4824 9.41309,-31.4824 C9.53613,-31.4824 9.62402,-31.4561 9.67676,-31.4033 C10.626,-30.2607 11.4434,-28.7754 12.1289,-26.9473 C12.832,-25.1191 13.1836,-23.458 13.1836,-21.9639 C13.1836,-20.2764 12.7793,-18.6943 11.9707,-17.2178 C11.0566,-15.6533 9.87891,-14.0361 8.4375,-12.3662 C8.80664,-11.2061 9.29883,-9.38672 9.91406,-6.9082 M12.1553,5.35254 C13.0693,5.01855 13.7812,4.44727 14.291,3.63867 C14.8535,2.86523 15.1348,1.99512 15.1348,1.02832 C15.1348,-0.219727 14.7129,-1.32715 13.8691,-2.29395 C13.0078,-3.2959 11.9092,-3.8584 10.5732,-3.98145 C11.3291,-0.272461 11.8564,2.83887 12.1553,5.35254 M1.95117,-0.738281 C1.95117,1.00195 2.6543,2.53125 4.06055,3.84961 C5.50195,5.13281 7.11914,5.77441 8.91211,5.77441 C9.65039,5.77441 10.3711,5.72168 11.0742,5.61621 C10.793,2.94434 10.2393,-0.254883 9.41309,-3.98145 C8.41113,-3.87598 7.61133,-3.52441 7.01367,-2.92676 C6.43359,-2.31152 6.14355,-1.61719 6.14355,-0.84375 C6.14355,0.492188 6.85547,1.57324 8.2793,2.39941 C8.40234,2.52246 8.46387,2.6543 8.46387,2.79492 C8.46387,2.93555 8.40234,3.06738 8.2793,3.19043 C8.17383,3.31348 8.04199,3.375 7.88379,3.375 C7.86621,3.375 7.78711,3.35742 7.64648,3.32227 C6.64453,2.77734 5.87109,2.07422 5.32617,1.21289 C4.81641,0.298828 4.56152,-0.624023 4.56152,-1.55566 C4.56152,-2.76855 4.93945,-3.86719 5.69531,-4.85156 C6.48633,-5.83594 7.51465,-6.46875 8.78027,-6.75 C8.28809,-8.71875 7.88379,-10.2568 7.56738,-11.3643 C7.28613,-11.0479 6.94775,-10.6655 6.55225,-10.2173 C6.15674,-9.76904 5.92383,-9.50098 5.85352,-9.41309 C5.2207,-8.58691 4.7373,-7.94531 4.40332,-7.48828 C3.80566,-6.66211 3.36621,-5.9502 3.08496,-5.35254 C2.78613,-4.68457 2.52246,-3.95508 2.29395,-3.16406 C2.06543,-2.4082 1.95117,-1.59961 1.95117,-0.738281 M10.7578,-27.5537 C9.43945,-26.9033 8.40234,-25.9717 7.64648,-24.7588 C6.87305,-23.5107 6.48633,-22.166 6.48633,-20.7246 C6.48633,-19.459 6.80273,-17.7539 7.43555,-15.6094 C8.70117,-17.1387 9.65039,-18.5537 10.2832,-19.8545 C10.9512,-21.2256 11.2852,-22.6582 11.2852,-24.1523 C11.2852,-25.2773 11.1094,-26.4111 10.7578,-27.5537 "/>
</g>

<g fill="none" stroke="#000000" stroke-opacity="1" stroke-width="1" stroke-linecap="square" stroke-linejoin="bevel" transform="matrix(3.125,0,0,3.125,131.444,534.777)"
font-family="MScore" font-size="27" font-weight="400" font-style="normal" 
>
</g>

<g fill="none" stroke="#000000" stroke-opacity="1" stroke-width="1" stroke-linecap="square" stroke-linejoin="bevel" transform="matrix(3.125,0,0,3.125,194.316,472.277)"
font-family="MScore" font-size="27" font-weight="400" font-style="normal" 
>
</g>

<g fill="#000000" fill-opacity="1" stroke="none" transform="matrix(3.125,0,0,3.125,194.316,472.277)"
font-family="MScore" font-size="27" font-weight="400" font-style="normal" 
>
<path vector-effect="none" fill-rule="nonzero" d="M5.82715,8.41113 C5.82715,8.74512 5.66016,8.91211 5.32617,8.91211 C4.99219,8.91211 4.8252,8.74512 4.8252,8.41113 L4.8252,4.50879 L2.58398,5.35254 L2.58398,9.62402 C2.58398,9.95801 2.41699,10.125 2.08301,10.125 C1.74902,10.125 1.58203,9.95801 1.58203,9.62402 L1.58203,5.69531 L0.738281,6.01172 C0.720703,6.0293 0.650391,6.03809 0.527344,6.03809 C0.386719,6.03809 0.263672,5.98535 0.158203,5.87988 C0.0527344,5.77441 0,5.65137 0,5.51074 L0,3.87598 C0,3.6123 0.114258,3.44531 0.342773,3.375 L1.58203,2.95312 L1.58203,-1.37109 L0.738281,-1.08105 C0.720703,-1.06348 0.650391,-1.05469 0.527344,-1.05469 C0.386719,-1.05469 0.263672,-1.10742 0.158203,-1.21289 C0.0527344,-1.31836 0,-1.44141 0,-1.58203 L0,-3.2168 C0,-3.46289 0.114258,-3.62109 0.342773,-3.69141 L1.58203,-4.16602 L1.58203,-8.41113 C1.58203,-8.74512 1.74902,-8.91211 2.08301,-8.91211 C2.41699,-8.91211 2.58398,-8.74512 2.58398,-8.41113 L2.58398,-4.50879 L4.8252,-5.35254 L4.8252,-9.62402 C4.8252,-9.95801 4.99219,-10.125 5.32617,-10.125 C5.66016,-10.125 5.82715,-9.95801 5.82715,-9.62402 L5.82715,-5.69531 L6.69727,-6.01172 C6.71484,-6.0293 6.77637,-6.03809 6.88184,-6.03809 C7.00488,-6.03809 7.13672,-5.98535 7.27734,-5.87988 C7.38281,-5.77441 7.43555,-5.65137 7.43555,-5.51074 L7.43555,-3.87598 C7.43555,-3.62988 7.3125,-3.46289 7.06641,-3.375 L5.82715,-2.95312 L5.82715,1.37109 L6.69727,1.08105 C6.71484,1.06348 6.77637,1.05469 6.88184,1.05469 C7.00488,1.05469 7.13672,1.10742 7.27734,1.21289 C7.38281,1.31836 7.43555,1.44141 7.43555,1.58203 L7.43555,3.2168 C7.43555,3.44531 7.3125,3.60352 7.06641,3.69141 L5.82715,4.16602 L5.82715,8.41113 M4.8252,-2.55762 L2.58398,-1.7666 L2.58398,2.55762 L4.8252,1.7666 L4.8252,-2.55762"/>
</g>

<g fill="none" stroke="#000000" stroke-opacity="1" stroke-width="1" stroke-linecap="square" stroke-linejoin="bevel" transform="matrix(3.125,0,0,3.125,194.316,472.277)"
font-family="MScore" font-size="27" font-weight="400" font-style="normal" 
>
</g>

<g fill="none" stroke="#000000" stroke-opacity="1" stroke-width="1" stroke-linecap="square" stroke-linejoin="bevel" transform="matrix(3.125,0,0,3.125,227.829,472.277)"
font-family="MScore" font-size="27" font-weight="400" font-style="normal" 
>
</g>

<g fill="#000000" fill-opacity="1" stroke="none" transform="matrix(3.125,0,0,3.125,227.829,493.11)"
font-family="MScore" font-size="27" font-weight="400" font-style="normal" 
>
<path vector-effect="none" fill-rule="nonzero" d="M6.06445,-6.40723 C6.5918,-6.40723 7.04004,-6.46875 7.40918,-6.5918 C7.77832,-6.71484 8.01562,-6.77637 8.12109,-6.77637 C8.24414,-6.77637 8.34082,-6.74121 8.41113,-6.6709 C8.46387,-6.61816 8.49902,-6.55664 8.5166,-6.48633 C8.5166,-6.45117 8.49902,-6.39844 8.46387,-6.32812 L0.791016,2.58398 L5.2998,2.58398 L5.2998,-0.949219 C5.2998,-1.17773 5.36133,-1.37109 5.48438,-1.5293 C5.69531,-1.70508 5.87109,-1.81055 6.01172,-1.8457 C6.24023,-1.95117 6.52148,-2.19727 6.85547,-2.58398 C7.13672,-2.90039 7.4707,-3.4541 7.85742,-4.24512 C7.91016,-4.35059 7.98926,-4.40332 8.09473,-4.40332 C8.30566,-4.40332 8.42871,-4.28027 8.46387,-4.03418 L8.46387,2.58398 L10.3887,2.58398 C10.6348,2.58398 10.7754,2.71582 10.8105,2.97949 C10.8105,3.24316 10.6699,3.375 10.3887,3.375 L8.46387,3.375 L8.46387,3.58594 C8.46387,4.28906 8.63965,4.88672 8.99121,5.37891 C9.39551,5.87109 9.87012,6.11719 10.415,6.11719 C10.626,6.11719 10.7314,6.22266 10.7314,6.43359 C10.7314,6.64453 10.626,6.75 10.415,6.75 C10.0459,6.75 9.44824,6.69727 8.62207,6.5918 C7.86621,6.46875 7.27734,6.40723 6.85547,6.40723 C6.41602,6.40723 5.82715,6.46875 5.08887,6.5918 C4.29785,6.69727 3.70898,6.75 3.32227,6.75 C3.11133,6.75 3.00586,6.64453 3.00586,6.43359 C3.00586,6.22266 3.11133,6.11719 3.32227,6.11719 C3.86719,6.11719 4.3418,5.87109 4.74609,5.37891 C5.11523,4.88672 5.2998,4.28906 5.2998,3.58594 L5.2998,3.375 L0.791016,3.375 C0.492188,3.375 0.28125,3.30469 0.158203,3.16406 C0.0175781,3.05859 -0.0527344,2.91797 -0.0527344,2.74219 C-0.0527344,2.68945 0.0791016,2.50488 0.342773,2.18848 C0.641602,1.83691 0.958008,1.40625 1.29199,0.896484 C1.67871,0.298828 2.04785,-0.316406 2.39941,-0.949219 C2.78613,-1.66992 3.09375,-2.49609 3.32227,-3.42773 C3.58594,-4.37695 3.71777,-5.34375 3.71777,-6.32812 C3.71777,-6.60938 3.84082,-6.75 4.08691,-6.75 C4.13965,-6.75 4.25391,-6.72363 4.42969,-6.6709 C4.48242,-6.65332 4.59229,-6.62695 4.75928,-6.5918 C4.92627,-6.55664 5.0625,-6.52148 5.16797,-6.48633 C5.48438,-6.43359 5.7832,-6.40723 6.06445,-6.40723 "/>
</g>

<g fill="none" stroke="#000000" stroke-opacity="1" stroke-width="1" stroke-linecap="square" stroke-linejoin="bevel" transform="matrix(3.125,0,0,3.125,227.829,472.277)"
font-family="MScore" font-size="27" font-weight="400" font-style="normal" 
>
</g>

<g fill="none" stroke="#000000" stroke-opacity="1" stroke-width="1" stroke-linecap="square" stroke-linejoin="bevel" transform="matrix(3.125,0,0,3.125,227.829,472.277)"
font-family="MScore" font-size="27" font-weight="400" font-style="normal" 
>
</g>

<g fill="#000000" fill-opacity="1" stroke="none" transform="matrix(3.125,0,0,3.125,227.829,534.777)"
font-family="MScore" font-size="27" font-weight="400" font-style="normal" 
>
<path vector-effect="none" fill-rule="nonzero" d="M6.06445,-6.40723 C6.5918,-6.40723 7.04004,-6.46875 7.40918,-6.5918 C7.77832,-6.71484 8.01562,-6.77637 8.12109,-6.77637 C8.24414,-6.77637 8.34082,-6.74121 8.41113,-6.6709 C8.46387,-6.61816 8.49902,-6.55664 8.5166,-6.48633 C8.5166,-6.45117 8.49902,-6.39844 8.46387,-6.32812 L0.791016,2.58398 L5.2998,2.58398 L5.2998,-0.949219 C5.2998,-1.17773 5.36133,-1.37109 5.48438,-1.5293 C5.69531,-1.70508 5.87109,-1.81055 6.01172,-1.8457 C6.24023,-1.95117 6.52148,-2.19727 6.85547,-2.58398 C7.13672,-2.90039 7.4707,-3.4541 7.85742,-4.24512 C7.91016,-4.35059 7.98926,-4.40332 8.09473,-4.40332 C8.30566,-4.40332 8.42871,-4.28027 8.46387,-4.03418 L8.46387,2.58398 L10.3887,2.58398 C10.6348,2.58398 10.7754,2.71582 10.8105,2.97949 C10.8105,3.24316 10.6699,3.375 10.3887,3.375 L8.46387,3.375 L8.46387,3.58594 C8.46387,4.28906 8.63965,4.88672 8.99121,5.37891 C9.39551,5.87109 9.87012,6.11719 10.415,6.11719 C10.626,6.11719 10.7314,6.22266 10.7314,6.43359 C10.7314,6.64453 10.626,6.75 10.415,6.75 C10.0459,6.75 9.44824,6.69727 8.62207,6.5918 C7.86621,6.46875 7.27734,6.40723 6.85547,6.40723 C6.41602,6.40723 5.82715,6.46875 5.08887,6.5918 C4.29785,6.69727 3.70898,6.75 3.32227,6.75 C3.11133,6.75 3.00586,6.64453 3.00586,6.43359 C3.00586,6.22266 3.11133,6.11719 3.32227,6.11719 C3.86719,6.11719 4.3418,5.87109 4.74609,5.37891 C5.11523,4.88672 5.2998,4.28906 5.2998,3.58594 L5.2998,3.375 L0.791016,3.375 C0.492188,3.375 0.28125,3.30469 0.158203,3.16406 C0.0175781,3.05859 -0.0527344,2.91797 -0.0527344,2.74219 C-0.0527344,2.68945 0.0791016,2.50488 0.342773,2.18848 C0.641602,1.83691 0.958008,1.40625 1.29199,0.896484 C1.67871,0.298828 2.04785,-0.316406 2.39941,-0.949219 C2.78613,-1.66992 3.09375,-2.49609 3.32227,-3.42773 C3.58594,-4.37695 3.71777,-5.34375 3.71777,-6.32812 C3.71777,-6.60938 3.84082,-6.75 4.08691,-6.75 C4.13965,-6.75 4.25391,-6.72363 4.42969,-6.6709 C4.48242,-6.65332 4.59229,-6.62695 4.75928,-6.5918 C4.92627,-6.55664 5.0625,-6.52148 5.16797,-6.48633 C5.48438,-6.43359 5.7832,-6.40723 6.06445,-6.40723 "/>
</g>

<g fill="none" stroke="#000000" stroke-opacity="1" stroke-width="1" stroke-linecap="square" stroke-linejoin="bevel" transform="matrix(3.125,0,0,3.125,227.829,472.277)"
font-family="MScore" font-size="27" font-weight="400" font-style="normal" 
>
</g>

<g fill="none" stroke="#000000" stroke-opacity="1" stroke-width="1" stroke-linecap="square" stroke-linejoin="bevel" transform="matrix(3.125,0,0,3.125,2085.93,513.944)"
font-family="MScore" font-size="27" font-weight="400" font-style="normal" 
>
</g>

<g fill="#000000" fill-opacity="1" stroke="none" transform="matrix(3.125,0,0,3.125,2085.93,513.944)"
font-family="MScore" font-size="27" font-weight="400" font-style="normal" 
>
<path vector-effect="none" fill-rule="nonzero" d="M-0.158203,-2.10938 C-0.158203,-2.42578 0.0175781,-2.77734 0.369141,-3.16406 C0.632812,-3.44531 1.01953,-3.7793 1.5293,-4.16602 C1.91602,-4.42969 2.29395,-4.8252 2.66309,-5.35254 C3.01465,-5.8623 3.19043,-6.41602 3.19043,-7.01367 C3.19043,-7.7168 2.96191,-8.34082 2.50488,-8.88574 L1.55566,-10.0195 C1.48535,-10.0898 1.4502,-10.1777 1.4502,-10.2832 C1.4502,-10.3887 1.50293,-10.4854 1.6084,-10.5732 C1.73145,-10.6611 1.83691,-10.7051 1.9248,-10.7051 C2.04785,-10.7051 2.14453,-10.6523 2.21484,-10.5469 L6.30176,-5.69531 C6.47754,-5.4668 6.56543,-5.23828 6.56543,-5.00977 C6.56543,-4.69336 6.38965,-4.3418 6.03809,-3.95508 C5.80957,-3.70898 5.43164,-3.375 4.9043,-2.95312 C4.5,-2.70703 4.11328,-2.31152 3.74414,-1.7666 C3.39258,-1.25684 3.2168,-0.703125 3.2168,-0.105469 C3.2168,0.632812 3.42773,1.25684 3.84961,1.7666 L6.11719,4.42969 C6.16992,4.48242 6.21387,4.57031 6.24902,4.69336 C6.24902,4.81641 6.20508,4.92188 6.11719,5.00977 C5.99414,5.09766 5.88867,5.1416 5.80078,5.1416 C5.76562,5.1416 5.625,5.04492 5.37891,4.85156 C5.11523,4.64062 4.76367,4.43848 4.32422,4.24512 C3.83203,4.05176 3.34863,3.95508 2.87402,3.95508 C2.43457,3.95508 2.07422,4.07812 1.79297,4.32422 C1.54688,4.57031 1.42383,5.04492 1.42383,5.74805 C1.42383,6.82031 1.67871,7.66406 2.18848,8.2793 C2.24121,8.34961 2.25,8.4375 2.21484,8.54297 C2.17969,8.61328 2.11816,8.64844 2.03027,8.64844 C1.90723,8.64844 1.63477,8.33203 1.21289,7.69922 C0.773438,7.03125 0.360352,6.2666 -0.0263672,5.40527 C-0.430664,4.49121 -0.632812,3.73535 -0.632812,3.1377 C-0.632812,2.38184 -0.272461,2.00391 0.448242,2.00391 C1.27441,2.00391 2.34668,2.28516 3.66504,2.84766 L0.105469,-1.42383 C-0.0703125,-1.65234 -0.158203,-1.88086 -0.158203,-2.10938 "/>
</g>

<g fill="none" stroke="#000000" stroke-opacity="1" stroke-width="1" stroke-linecap="square" stroke-linejoin="bevel" transform="matrix(3.125,0,0,3.125,2085.93,513.944)"
font-family="MScore" font-size="27" font-weight="400" font-style="normal" 
>
</g>

<g fill="none" stroke="#000000" stroke-opacity="1" stroke-width="1" stroke-linecap="square" stroke-linejoin="bevel" transform="matrix(3.125,0,0,3.125,1321.3,513.944)"
font-family="MScore" font-size="27" font-weight="400" font-style="normal" 
>
</g>

<g fill="#000000" fill-opacity="1" stroke="none" transform="matrix(3.125,0,0,3.125,1321.3,513.944)"
font-family="MScore" font-size="27" font-weight="400" font-style="normal" 
>
<path vector-effect="none" fill-rule="nonzero" d="M-0.158203,-2.10938 C-0.158203,-2.42578 0.0175781,-2.77734 0.369141,-3.16406 C0.632812,-3.44531 1.01953,-3.7793 1.5293,-4.16602 C1.91602,-4.42969 2.29395,-4.8252 2.66309,-5.35254 C3.01465,-5.8623 3.19043,-6.41602 3.19043,-7.01367 C3.19043,-7.7168 2.96191,-8.34082 2.50488,-8.88574 L1.55566,-10.0195 C1.48535,-10.0898 1.4502,-10.1777 1.4502,-10.2832 C1.4502,-10.3887 1.50293,-10.4854 1.6084,-10.5732 C1.73145,-10.6611 1.83691,-10.7051 1.9248,-10.7051 C2.04785,-10.7051 2.14453,-10.6523 2.21484,-10.5469 L6.30176,-5.69531 C6.47754,-5.4668 6.56543,-5.23828 6.56543,-5.00977 C6.56543,-4.69336 6.38965,-4.3418 6.03809,-3.95508 C5.80957,-3.70898 5.43164,-3.375 4.9043,-2.95312 C4.5,-2.70703 4.11328,-2.31152 3.74414,-1.7666 C3.39258,-1.25684 3.2168,-0.703125 3.2168,-0.105469 C3.2168,0.632812 3.42773,1.25684 3.84961,1.7666 L6.11719,4.42969 C6.16992,4.48242 6.21387,4.57031 6.24902,4.69336 C6.24902,4.81641 6.20508,4.92188 6.11719,5.00977 C5.99414,5.09766 5.88867,5.1416 5.80078,5.1416 C5.76562,5.1416 5.625,5.04492 5.37891,4.85156 C5.11523,4.64062 4.76367,4.43848 4.32422,4.24512 C3.83203,4.05176 3.34863,3.95508 2.87402,3.95508 C2.43457,3.95508 2.07422,4.07812 1.79297,4.32422 C1.54688,4.57031 1.42383,5.04492 1.42383,5.74805 C1.42383,6.82031 1.67871,7.66406 2.18848,8.2793 C2.24121,8.34961 2.25,8.4375 2.21484,8.54297 C2.17969,8.61328 2.11816,8.64844 2.03027,8.64844 C1.90723,8.64844 1.63477,8.33203 1.21289,7.69922 C0.773438,7.03125 0.360352,6.2666 -0.0263672,5.40527 C-0.430664,4.49121 -0.632812,3.73535 -0.632812,3.1377 C-0.632812,2.38184 -0.272461,2.00391 0.448242,2.00391 C1.27441,2.00391 2.34668,2.28516 3.66504,2.84766 L0.105469,-1.42383 C-0.0703125,-1.65234 -0.158203,-1.88086 -0.158203,-2.10938 "/>
</g>

<g fill="none" stroke="#000000" stroke-opacity="1" stroke-width="1" stroke-linecap="square" stroke-linejoin="bevel" transform="matrix(3.125,0,0,3.125,1321.3,513.944)"
font-family="MScore" font-size="27" font-weight="400" font-style="normal" 
>
</g>

<g fill="none" stroke="#000000" stroke-opacity="1" stroke-width="1" stroke-linecap="square" stroke-linejoin="bevel" transform="matrix(3.125,0,0,3.125,1043.18,513.944)"
font-family="MScore" font-size="27" font-weight="400" font-style="normal" 
>
</g>

<g fill="#000000" fill-opacity="1" stroke="none" transform="matrix(3.125,0,0,3.125,1043.18,513.944)"
font-family="MScore" font-size="27" font-weight="400" font-style="normal" 
>
<path vector-effect="none" fill-rule="nonzero" d="M-0.158203,-2.10938 C-0.158203,-2.42578 0.0175781,-2.77734 0.369141,-3.16406 C0.632812,-3.44531 1.01953,-3.7793 1.5293,-4.16602 C1.91602,-4.42969 2.29395,-4.8252 2.66309,-5.35254 C3.01465,-5.8623 3.19043,-6.41602 3.19043,-7.01367 C3.19043,-7.7168 2.96191,-8.34082 2.50488,-8.88574 L1.55566,-10.0195 C1.48535,-10.0898 1.4502,-10.1777 1.4502,-10.2832 C1.4502,-10.3887 1.50293,-10.4854 1.6084,-10.5732 C1.73145,-10.6611 1.83691,-10.7051 1.9248,-10.7051 C2.04785,-10.7051 2.14453,-10.6523 2.21484,-10.5469 L6.30176,-5.69531 C6.47754,-5.4668 6.56543,-5.23828 6.56543,-5.00977 C6.56543,-4.69336 6.38965,-4.3418 6.03809,-3.95508 C5.80957,-3.70898 5.43164,-3.375 4.9043,-2.95312 C4.5,-2.70703 4.11328,-2.31152 3.74414,-1.7666 C3.39258,-1.25684 3.2168,-0.703125 3.2168,-0.105469 C3.2168,0.632812 3.42773,1.25684 3.84961,1.7666 L6.11719,4.42969 C6.16992,4.48242 6.21387,4.57031 6.24902,4.69336 C6.24902,4.81641 6.20508,4.92188 6.11719,5.00977 C5.99414,5.09766 5.88867,5.1416 5.80078,5.1416 C5.76562,5.1416 5.625,5.04492 5.37891,4.85156 C5.11523,4.64062 4.76367,4.43848 4.32422,4.24512 C3.83203,4.05176 3.34863,3.95508 2.87402,3.95508 C2.43457,3.95508 2.07422,4.07812 1.79297,4.32422 C1.54688,4.57031 1.42383,5.04492 1.42383,5.74805 C1.42383,6.82031 1.67871,7.66406 2.18848,8.2793 C2.24121,8.34961 2.25,8.4375 2.21484,8.54297 C2.17969,8.61328 2.11816,8.64844 2.03027,8.64844 C1.90723,8.64844 1.63477,8.33203 1.21289,7.69922 C0.773438,7.03125 0.360352,6.2666 -0.0263672,5.40527 C-0.430664,4.49121 -0.632812,3.73535 -0.632812,3.1377 C-0.632812,2.38184 -0.272461,2.00391 0.448242,2.00391 C1.27441,2.00391 2.34668,2.28516 3.66504,2.84766 L0.105469,-1.42383 C-0.0703125,-1.65234 -0.158203,-1.88086 -0.158203,-2.10938 "/>
</g>

<g fill="none" stroke="#000000" stroke-opacity="1" stroke-width="1" stroke-linecap="square" stroke-linejoin="bevel" transform="matrix(3.125,0,0,3.125,1043.18,513.944)"
font-family="MScore" font-size="27" font-weight="400" font-style="normal" 
>
</g>

<g fill="none" stroke="#000000" stroke-opacity="1" stroke-width="1" stroke-linecap="square" stroke-linejoin="bevel" transform="matrix(3.125,0,0,3.125,299.683,513.944)"
font-family="MScore" font-size="27" font-weight="400" font-style="normal" 
>
</g>

<g fill="#000000" fill-opacity="1" stroke="none" transform="matrix(3.125,0,0,3.125,299.683,513.944)"
font-family="MScore" font-size="27" font-weight="400" font-style="normal" 
>
<path vector-effect="none" fill-rule="nonzero" d="M-0.158203,-2.10938 C-0.158203,-2.42578 0.0175781,-2.77734 0.369141,-3.16406 C0.632812,-3.44531 1.01953,-3.7793 1.5293,-4.16602 C1.91602,-4.42969 2.29395,-4.8252 2.66309,-5.35254 C3.01465,-5.8623 3.19043,-6.41602 3.19043,-7.01367 C3.19043,-7.7168 2.96191,-8.34082 2.50488,-8.88574 L1.55566,-10.0195 C1.48535,-10.0898 1.4502,-10.1777 1.4502,-10.2832 C1.4502,-10.3887 1.50293,-10.4854 1.6084,-10.5732 C1.73145,-10.6611 1.83691,-10.7051 1.9248,-10.7051 C2.04785,-10.7051 2.14453,-10.6523 2.21484,-10.5469 L6.30176,-5.69531 C6.47754,-5.4668 6.56543,-5.23828 6.56543,-5.00977 C6.56543,-4.69336 6.38965,-4.3418 6.03809,-3.95508 C5.80957,-3.70898 5.43164,-3.375 4.9043,-2.95312 C4.5,-2.70703 4.11328,-2.31152 3.74414,-1.7666 C3.39258,-1.25684 3.2168,-0.703125 3.2168,-0.105469 C3.2168,0.632812 3.42773,1.25684 3.84961,1.7666 L6.11719,4.42969 C6.16992,4.48242 6.21387,4.57031 6.24902,4.69336 C6.24902,4.81641 6.20508,4.92188 6.11719,5.00977 C5.99414,5.09766 5.88867,5.1416 5.80078,5.1416 C5.76562,5.1416 5.625,5.04492 5.37891,4.85156 C5.11523,4.64062 4.76367,4.43848 4.32422,4.24512 C3.83203,4.05176 3.34863,3.95508 2.87402,3.95508 C2.43457,3.95508 2.07422,4.07812 1.79297,4.32422 C1.54688,4.57031 1.42383,5.04492 1.42383,5.74805 C1.42383,6.82031 1.67871,7.66406 2.18848,8.2793 C2.24121,8.34961 2.25,8.4375 2.21484,8.54297 C2.17969,8.61328 2.11816,8.64844 2.03027,8.64844 C1.90723,8.64844 1.63477,8.33203 1.21289,7.69922 C0.773438,7.03125 0.360352,6.2666 -0.0263672,5.40527 C-0.430664,4.49121 -0.632812,3.73535 -0.632812,3.1377 C-0.632812,2.38184 -0.272461,2.00391 0.448242,2.00391 C1.27441,2.00391 2.34668,2.28516 3.66504,2.84766 L0.105469,-1.42383 C-0.0703125,-1.65234 -0.158203,-1.88086 -0.158203,-2.10938 "/>
</g>

<g fill="none" stroke="#000000" stroke-opacity="1" stroke-width="1" stroke-linecap="square" stroke-linejoin="bevel" transform="matrix(3.125,0,0,3.125,299.683,513.944)"
font-family="MScore" font-size="27" font-weight="400" font-style="normal" 
>
</g>

<g fill="none" stroke="#000000" stroke-opacity="1" stroke-width="1" stroke-linecap="square" stroke-linejoin="bevel" transform="matrix(3.125,0,0,3.125,1854.16,638.944)"
font-family="FreeSerif" font-size="15" font-weight="400" font-style="normal" 
>
</g>

<g fill="#000000" fill-opacity="1" stroke="none" transform="matrix(3.125,0,0,3.125,1827.59,638.944)"
font-family="FreeSerif" font-size="15" font-weight="400" font-style="normal" 
>
<path vector-effect="none" fill-rule="nonzero" d="M0.525,-4.875 C0.525,-6.42609 1.00426,-7.68637 1.96277,-8.65582 C2.92129,-9.62527 4.11445,-10.11 5.54227,-10.11 C6.18367,-10.11 6.78504,-10.0316 7.34637,-9.87492 C7.9077,-9.7182 8.23344,-9.63984 8.32359,-9.63984 C8.65437,-9.63984 8.86484,-9.79656 8.955,-10.11 L9.27,-10.11 L9.405,-6.75 L9.06,-6.75 C8.50875,-8.61 7.43141,-9.54 5.82797,-9.54 C4.73547,-9.54 3.86602,-9.135 3.21961,-8.325 C2.5732,-7.515 2.25,-6.43 2.25,-5.07 C2.25,-4.2 2.36277,-3.4475 2.58832,-2.8125 C2.81387,-2.1775 3.11707,-1.6975 3.49793,-1.3725 C3.87879,-1.0475 4.27215,-0.8125 4.67801,-0.6675 C5.08387,-0.5225 5.51734,-0.45 5.97844,-0.45 C7.16078,-0.45 8.27797,-0.955 9.33,-1.965 L9.6,-1.695 C9.13937,-1.085 8.55336,-0.615 7.84195,-0.285 C7.13055,0.045 6.34898,0.21 5.49727,0.21 C4.01961,0.21 2.82148,-0.255 1.90289,-1.185 C0.984297,-2.115 0.525,-3.345 0.525,-4.875 M17.061,-4.05 L17.061,-3.24 L15.4405,-3.24 L14.9589,0 L14.095,0 L14.5769,-3.24 L12.5509,-3.24 L12.0501,0 L11.185,0 L11.6859,-3.24 L10.0809,-3.24 L10.0809,-4.05 L11.811,-4.05 L12.1265,-6.09 L10.4765,-6.09 L10.4765,-6.9 L12.2516,-6.9 L12.7199,-9.93 L13.585,-9.93 L13.1167,-6.9 L15.1206,-6.9 L15.5711,-9.93 L16.435,-9.93 L15.9848,-6.9 L17.4398,-6.9 L17.4398,-6.09 L15.8643,-6.09 L15.561,-4.05 L17.061,-4.05 M15.0004,-6.09 L12.9916,-6.09 L12.6763,-4.05 L14.6971,-4.05 L15.0004,-6.09"/>
</g>

<g fill="none" stroke="#000000" stroke-opacity="1" stroke-width="1" stroke-linecap="square" stroke-linejoin="bevel" transform="matrix(3.125,0,0,3.125,1854.16,638.944)"
font-family="FreeSerif" font-size="15" font-weight="400" font-style="normal" 
>
</g>

<g fill="none" stroke="#000000" stroke-opacity="1" stroke-width="1" stroke-linecap="square" stroke-linejoin="bevel" transform="matrix(3.125,0,0,3.125,1589.91,638.944)"
font-family="FreeSerif" font-size="15" font-weight="400" font-style="normal" 
>
</g>

<g fill="#000000" fill-opacity="1" stroke="none" transform="matrix(3.125,0,0,3.125,1574.28,638.944)"
font-family="FreeSerif" font-size="15" font-weight="400" font-style="normal" 
>
<path vector-effect="none" fill-rule="nonzero" d="M0.525,-4.875 C0.525,-6.42609 1.00426,-7.68637 1.96277,-8.65582 C2.92129,-9.62527 4.11445,-10.11 5.54227,-10.11 C6.18367,-10.11 6.78504,-10.0316 7.34637,-9.87492 C7.9077,-9.7182 8.23344,-9.63984 8.32359,-9.63984 C8.65437,-9.63984 8.86484,-9.79656 8.955,-10.11 L9.27,-10.11 L9.405,-6.75 L9.06,-6.75 C8.50875,-8.61 7.43141,-9.54 5.82797,-9.54 C4.73547,-9.54 3.86602,-9.135 3.21961,-8.325 C2.5732,-7.515 2.25,-6.43 2.25,-5.07 C2.25,-4.2 2.36277,-3.4475 2.58832,-2.8125 C2.81387,-2.1775 3.11707,-1.6975 3.49793,-1.3725 C3.87879,-1.0475 4.27215,-0.8125 4.67801,-0.6675 C5.08387,-0.5225 5.51734,-0.45 5.97844,-0.45 C7.16078,-0.45 8.27797,-0.955 9.33,-1.965 L9.6,-1.695 C9.13937,-1.085 8.55336,-0.615 7.84195,-0.285 C7.13055,0.045 6.34898,0.21 5.49727,0.21 C4.01961,0.21 2.82148,-0.255 1.90289,-1.185 C0.984297,-2.115 0.525,-3.345 0.525,-4.875 "/>
</g>

<g fill="none" stroke="#000000" stroke-opacity="1" stroke-width="1" stroke-linecap="square" stroke-linejoin="bevel" transform="matrix(3.125,0,0,3.125,1589.91,638.944)"
font-family="FreeSerif" font-size="15" font-weight="400" font-style="normal" 
>
</g>

<g fill="none" stroke="#000000" stroke-opacity="1" stroke-width="1" stroke-linecap="square" stroke-linejoin="bevel" transform="matrix(3.125,0,0,3.125,818.45,638.944)"
font-family="FreeSerif" font-size="15" font-weight="400" font-style="normal" 
>
</g>

<g fill="#000000" fill-opacity="1" stroke="none" transform="matrix(3.125,0,0,3.125,796.575,638.944)"
font-family="FreeSerif" font-size="15" font-weight="400" font-style="normal" 
>
<path vector-effect="none" fill-rule="nonzero" d="M0.375,-3.19781 C0.375,-4.30703 0.70293,-5.20137 1.35879,-5.88082 C2.01465,-6.56027 2.7832,-6.9 3.66445,-6.9 C4.28102,-6.9 4.81191,-6.7475 5.25715,-6.4425 C5.70238,-6.1375 5.925,-5.775 5.925,-5.355 C5.925,-5.185 5.85723,-5.0375 5.72168,-4.9125 C5.58613,-4.7875 5.42148,-4.725 5.22773,-4.725 C4.89852,-4.725 4.67094,-4.95305 4.545,-5.40914 L4.45547,-5.73609 C4.37578,-6.01375 4.27625,-6.20215 4.15687,-6.30129 C4.0375,-6.40043 3.84352,-6.45 3.57492,-6.45 C2.96789,-6.45 2.47781,-6.20883 2.10469,-5.72648 C1.73156,-5.24414 1.545,-4.62 1.545,-3.85406 C1.545,-2.99875 1.76141,-2.30008 2.19422,-1.75805 C2.62703,-1.21602 3.1818,-0.945 3.85852,-0.945 C4.27867,-0.945 4.6402,-1.04941 4.94309,-1.25824 C5.24598,-1.46707 5.57328,-1.83008 5.925,-2.34727 L6.135,-2.2132 C6.035,-2.01258 5.94801,-1.84703 5.87402,-1.71656 C5.80004,-1.58609 5.66738,-1.39039 5.47605,-1.12945 C5.28473,-0.868516 5.09586,-0.657773 4.90945,-0.497227 C4.72305,-0.33668 4.47773,-0.188672 4.17352,-0.0532031 C3.8693,0.0822656 3.55531,0.15 3.23156,0.15 C2.39969,0.15 1.71562,-0.162773 1.17937,-0.78832 C0.643125,-1.41387 0.375,-2.21703 0.375,-3.19781 M14.061,-4.05 L14.061,-3.24 L12.4405,-3.24 L11.9589,0 L11.095,0 L11.5769,-3.24 L9.55094,-3.24 L9.05008,0 L8.185,0 L8.68586,-3.24 L7.08086,-3.24 L7.08086,-4.05 L8.81102,-4.05 L9.12648,-6.09 L7.47648,-6.09 L7.47648,-6.9 L9.25164,-6.9 L9.71992,-9.93 L10.585,-9.93 L10.1167,-6.9 L12.1206,-6.9 L12.5711,-9.93 L13.435,-9.93 L12.9848,-6.9 L14.4398,-6.9 L14.4398,-6.09 L12.8643,-6.09 L12.561,-4.05 L14.061,-4.05 M12.0004,-6.09 L9.99156,-6.09 L9.67633,-4.05 L11.6971,-4.05 L12.0004,-6.09"/>
</g>

<g fill="none" stroke="#000000" stroke-opacity="1" stroke-width="1" stroke-linecap="square" stroke-linejoin="bevel" transform="matrix(3.125,0,0,3.125,818.45,638.944)"
font-family="FreeSerif" font-size="15" font-weight="400" font-style="normal" 
>
</g>

<g fill="none" stroke="#000000" stroke-opacity="1" stroke-width="1" stroke-linecap="square" stroke-linejoin="bevel" transform="matrix(3.125,0,0,3.125,561.244,638.944)"
font-family="FreeSerif" font-size="15" font-weight="400" font-style="normal" 
>
</g>

<g fill="#000000" fill-opacity="1" stroke="none" transform="matrix(3.125,0,0,3.125,550.306,638.944)"
font-family="FreeSerif" font-size="15" font-weight="400" font-style="normal" 
>
<path vector-effect="none" fill-rule="nonzero" d="M0.375,-3.19781 C0.375,-4.30703 0.70293,-5.20137 1.35879,-5.88082 C2.01465,-6.56027 2.7832,-6.9 3.66445,-6.9 C4.28102,-6.9 4.81191,-6.7475 5.25715,-6.4425 C5.70238,-6.1375 5.925,-5.775 5.925,-5.355 C5.925,-5.185 5.85723,-5.0375 5.72168,-4.9125 C5.58613,-4.7875 5.42148,-4.725 5.22773,-4.725 C4.89852,-4.725 4.67094,-4.95305 4.545,-5.40914 L4.45547,-5.73609 C4.37578,-6.01375 4.27625,-6.20215 4.15687,-6.30129 C4.0375,-6.40043 3.84352,-6.45 3.57492,-6.45 C2.96789,-6.45 2.47781,-6.20883 2.10469,-5.72648 C1.73156,-5.24414 1.545,-4.62 1.545,-3.85406 C1.545,-2.99875 1.76141,-2.30008 2.19422,-1.75805 C2.62703,-1.21602 3.1818,-0.945 3.85852,-0.945 C4.27867,-0.945 4.6402,-1.04941 4.94309,-1.25824 C5.24598,-1.46707 5.57328,-1.83008 5.925,-2.34727 L6.135,-2.2132 C6.035,-2.01258 5.94801,-1.84703 5.87402,-1.71656 C5.80004,-1.58609 5.66738,-1.39039 5.47605,-1.12945 C5.28473,-0.868516 5.09586,-0.657773 4.90945,-0.497227 C4.72305,-0.33668 4.47773,-0.188672 4.17352,-0.0532031 C3.8693,0.0822656 3.55531,0.15 3.23156,0.15 C2.39969,0.15 1.71562,-0.162773 1.17937,-0.78832 C0.643125,-1.41387 0.375,-2.21703 0.375,-3.19781 "/>
</g>

<g fill="none" stroke="#000000" stroke-opacity="1" stroke-width="1" stroke-linecap="square" stroke-linejoin="bevel" transform="matrix(3.125,0,0,3.125,561.244,638.944)"
font-family="FreeSerif" font-size="15" font-weight="400" font-style="normal" 
>
</g>

<g fill="none" stroke="#000000" stroke-opacity="1" stroke-width="1" stroke-linecap="square" stroke-linejoin="bevel" transform="matrix(3.125,0,0,3.125,1831.05,800.402)"
font-family="Tin Whistle Fingering" font-size="53" font-weight="400" font-style="normal" 
>
</g>

<g fill="#000000" fill-opacity="1" stroke="none" transform="matrix(3.125,0,0,3.125,1831.05,800.402)"
font-family="Tin Whistle Fingering" font-size="53" font-weight="400" font-style="normal" 
>
<path vector-effect="none" fill-rule="nonzero" d="M7.14258,4.45117 L7.14258,6.57324 L5.56396,6.57324 L5.56396,4.45117 L3.44189,4.45117 L3.44189,2.87256 L5.56396,2.87256 L5.56396,0.750488 L7.14258,0.750488 L7.14258,2.87256 L9.26465,2.87256 L9.26465,4.45117 L7.14258,4.45117 M3.18311,-3.18311 C3.18311,-4.08024 3.50659,-4.83504 4.15356,-5.44751 C4.80054,-6.05998 5.53809,-6.36621 6.36621,-6.36621 C7.26335,-6.36621 8.01815,-6.04272 8.63062,-5.39575 C9.24308,-4.74878 9.54932,-4.01123 9.54932,-3.18311 C9.54932,-2.28597 9.22583,-1.53117 8.57886,-0.918701 C7.93188,-0.306234 7.19434,0 6.36621,0 C5.46908,0 4.71427,-0.323486 4.10181,-0.970459 C3.48934,-1.61743 3.18311,-2.35498 3.18311,-3.18311 M3.93359,-3.18311 C3.93359,-2.54476 4.19238,-1.97974 4.70996,-1.48804 C5.22754,-0.996338 5.77962,-0.750488 6.36621,-0.750488 C7.00456,-0.750488 7.56958,-1.00928 8.06128,-1.52686 C8.55298,-2.04443 8.79883,-2.59652 8.79883,-3.18311 C8.79883,-3.82145 8.54004,-4.38647 8.02246,-4.87817 C7.50488,-5.36987 6.9528,-5.61572 6.36621,-5.61572 C5.72786,-5.61572 5.16284,-5.35693 4.67114,-4.83936 C4.17944,-4.32178 3.93359,-3.76969 3.93359,-3.18311 M3.18311,-10.8174 C3.18311,-11.7145 3.50659,-12.4693 4.15356,-13.0818 C4.80054,-13.6943 5.53809,-14.0005 6.36621,-14.0005 C7.26335,-14.0005 8.01815,-13.677 8.63062,-13.03 C9.24308,-12.3831 9.54932,-11.6455 9.54932,-10.8174 C9.54932,-9.92025 9.22583,-9.16545 8.57886,-8.55298 C7.93188,-7.94051 7.19434,-7.63428 6.36621,-7.63428 C5.46908,-7.63428 4.71427,-7.95776 4.10181,-8.60474 C3.48934,-9.25171 3.18311,-9.98926 3.18311,-10.8174 M3.93359,-10.8174 C3.93359,-10.179 4.19238,-9.61401 4.70996,-9.12231 C5.22754,-8.63062 5.77962,-8.38477 6.36621,-8.38477 C7.00456,-8.38477 7.56958,-8.64355 8.06128,-9.16113 C8.55298,-9.67871 8.79883,-10.2308 8.79883,-10.8174 C8.79883,-11.4557 8.54004,-12.0208 8.02246,-12.5125 C7.50488,-13.0042 6.9528,-13.25 6.36621,-13.25 C5.72786,-13.25 5.16284,-12.9912 4.67114,-12.4736 C4.17944,-11.9561 3.93359,-11.404 3.93359,-10.8174 M3.18311,-18.4517 C3.18311,-19.3488 3.50659,-20.1036 4.15356,-20.7161 C4.80054,-21.3285 5.53809,-21.6348 6.36621,-21.6348 C7.26335,-21.6348 8.01815,-21.3113 8.63062,-20.6643 C9.24308,-20.0173 9.54932,-19.2798 9.54932,-18.4517 C9.54932,-17.5545 9.22583,-16.7997 8.57886,-16.1873 C7.93188,-15.5748 7.19434,-15.2686 6.36621,-15.2686 C5.46908,-15.2686 4.71427,-15.592 4.10181,-16.239 C3.48934,-16.886 3.18311,-17.6235 3.18311,-18.4517 M3.93359,-18.4517 C3.93359,-17.8133 4.19238,-17.244 4.70996,-16.7437 C5.22754,-16.2433 5.77962,-15.9932 6.36621,-15.9932 C7.00456,-15.9932 7.56958,-16.2563 8.06128,-16.7825 C8.55298,-17.3087 8.79883,-17.8651 8.79883,-18.4517 C8.79883,-19.09 8.54004,-19.655 8.02246,-20.1467 C7.50488,-20.6384 6.9528,-20.8843 6.36621,-20.8843 C5.72786,-20.8843 5.16284,-20.6255 4.67114,-20.1079 C4.17944,-19.5903 3.93359,-19.0382 3.93359,-18.4517 M3.18311,-26.0859 C3.18311,-26.9831 3.50659,-27.7336 4.15356,-28.3374 C4.80054,-28.9412 5.53809,-29.2432 6.36621,-29.2432 C7.26335,-29.2432 8.01815,-28.924 8.63062,-28.2856 C9.24308,-27.6473 9.54932,-26.9141 9.54932,-26.0859 C9.54932,-25.1888 9.22583,-24.434 8.57886,-23.8215 C7.93188,-23.2091 7.19434,-22.9028 6.36621,-22.9028 C5.46908,-22.9028 4.71427,-23.2263 4.10181,-23.8733 C3.48934,-24.5203 3.18311,-25.2578 3.18311,-26.0859 M3.93359,-26.0859 C3.93359,-25.4476 4.19238,-24.8783 4.70996,-24.3779 C5.22754,-23.8776 5.77962,-23.6274 6.36621,-23.6274 C7.00456,-23.6274 7.56958,-23.8905 8.06128,-24.4167 C8.55298,-24.943 8.79883,-25.4993 8.79883,-26.0859 C8.79883,-26.7243 8.54004,-27.2893 8.02246,-27.781 C7.50488,-28.2727 6.9528,-28.5186 6.36621,-28.5186 C5.72786,-28.5186 5.16284,-28.2598 4.67114,-27.7422 C4.17944,-27.2246 3.93359,-26.6725 3.93359,-26.0859 M3.18311,-33.7202 C3.18311,-34.6174 3.50659,-35.3678 4.15356,-35.9717 C4.80054,-36.5755 5.53809,-36.8774 6.36621,-36.8774 C7.26335,-36.8774 8.01815,-36.5583 8.63062,-35.9199 C9.24308,-35.2816 9.54932,-34.5483 9.54932,-33.7202 C9.54932,-32.8231 9.22583,-32.0683 8.57886,-31.4558 C7.93188,-30.8433 7.19434,-30.5371 6.36621,-30.5371 C5.46908,-30.5371 4.71427,-30.8606 4.10181,-31.5076 C3.48934,-32.1545 3.18311,-32.8921 3.18311,-33.7202 M3.93359,-33.7202 C3.93359,-33.0819 4.19238,-32.5125 4.70996,-32.0122 C5.22754,-31.5119 5.77962,-31.2617 6.36621,-31.2617 C7.00456,-31.2617 7.56958,-31.5248 8.06128,-32.051 C8.55298,-32.5772 8.79883,-33.1336 8.79883,-33.7202 C8.79883,-34.3586 8.54004,-34.9236 8.02246,-35.4153 C7.50488,-35.907 6.9528,-36.1528 6.36621,-36.1528 C5.72786,-36.1528 5.16284,-35.894 4.67114,-35.3765 C4.17944,-34.8589 3.93359,-34.3068 3.93359,-33.7202 M3.18311,-41.3286 C3.18311,-42.2257 3.50659,-42.9806 4.15356,-43.593 C4.80054,-44.2055 5.53809,-44.5117 6.36621,-44.5117 C7.26335,-44.5117 8.01815,-44.1882 8.63062,-43.5413 C9.24308,-42.8943 9.54932,-42.1567 9.54932,-41.3286 C9.54932,-40.4315 9.22583,-39.681 8.57886,-39.0771 C7.93188,-38.4733 7.19434,-38.1714 6.36621,-38.1714 C5.46908,-38.1714 4.71427,-38.4906 4.10181,-39.1289 C3.48934,-39.7673 3.18311,-40.5005 3.18311,-41.3286 M3.93359,-41.3286 C3.93359,-40.6903 4.19238,-40.1252 4.70996,-39.6335 C5.22754,-39.1418 5.77962,-38.896 6.36621,-38.896 C7.00456,-38.896 7.56958,-39.1548 8.06128,-39.6724 C8.55298,-40.1899 8.79883,-40.742 8.79883,-41.3286 C8.79883,-41.967 8.54004,-42.5363 8.02246,-43.0366 C7.50488,-43.5369 6.9528,-43.7871 6.36621,-43.7871 C5.72786,-43.7871 5.16284,-43.524 4.67114,-42.9978 C4.17944,-42.4716 3.93359,-41.9152 3.93359,-41.3286 "/>
</g>

<g fill="none" stroke="#000000" stroke-opacity="1" stroke-width="1" stroke-linecap="square" stroke-linejoin="bevel" transform="matrix(3.125,0,0,3.125,1831.05,800.402)"
font-family="Tin Whistle Fingering" font-size="53" font-weight="400" font-style="normal" 
>
</g>

<g fill="none" stroke="#000000" stroke-opacity="1" stroke-width="1" stroke-linecap="square" stroke-linejoin="bevel" transform="matrix(3.125,0,0,3.125,1576.17,800.402)"
font-family="Tin Whistle Fingering" font-size="53" font-weight="400" font-style="normal" 
>
</g>

<g fill="#000000" fill-opacity="1" stroke="none" transform="matrix(3.125,0,0,3.125,1576.17,800.402)"
font-family="Tin Whistle Fingering" font-size="53" font-weight="400" font-style="normal" 
>
<path vector-effect="none" fill-rule="nonzero" d="M7.14258,4.45117 L7.14258,6.57324 L5.56396,6.57324 L5.56396,4.45117 L3.44189,4.45117 L3.44189,2.87256 L5.56396,2.87256 L5.56396,0.750488 L7.14258,0.750488 L7.14258,2.87256 L9.26465,2.87256 L9.26465,4.45117 L7.14258,4.45117 M3.18311,-3.18311 C3.18311,-4.08024 3.50659,-4.83504 4.15356,-5.44751 C4.80054,-6.05998 5.53809,-6.36621 6.36621,-6.36621 C7.26335,-6.36621 8.01815,-6.04272 8.63062,-5.39575 C9.24308,-4.74878 9.54932,-4.01123 9.54932,-3.18311 C9.54932,-2.28597 9.22583,-1.53117 8.57886,-0.918701 C7.93188,-0.306234 7.19434,0 6.36621,0 C5.46908,0 4.71427,-0.323486 4.10181,-0.970459 C3.48934,-1.61743 3.18311,-2.35498 3.18311,-3.18311 M3.93359,-3.18311 C3.93359,-2.54476 4.19238,-1.97974 4.70996,-1.48804 C5.22754,-0.996338 5.77962,-0.750488 6.36621,-0.750488 C7.00456,-0.750488 7.56958,-1.00928 8.06128,-1.52686 C8.55298,-2.04443 8.79883,-2.59652 8.79883,-3.18311 C8.79883,-3.82145 8.54004,-4.38647 8.02246,-4.87817 C7.50488,-5.36987 6.9528,-5.61572 6.36621,-5.61572 C5.72786,-5.61572 5.16284,-5.35693 4.67114,-4.83936 C4.17944,-4.32178 3.93359,-3.76969 3.93359,-3.18311 M3.18311,-10.8174 C3.18311,-11.7145 3.50659,-12.4693 4.15356,-13.0818 C4.80054,-13.6943 5.53809,-14.0005 6.36621,-14.0005 C7.26335,-14.0005 8.01815,-13.677 8.63062,-13.03 C9.24308,-12.3831 9.54932,-11.6455 9.54932,-10.8174 C9.54932,-9.92025 9.22583,-9.16545 8.57886,-8.55298 C7.93188,-7.94051 7.19434,-7.63428 6.36621,-7.63428 C5.46908,-7.63428 4.71427,-7.95776 4.10181,-8.60474 C3.48934,-9.25171 3.18311,-9.98926 3.18311,-10.8174 M3.93359,-10.8174 C3.93359,-10.179 4.19238,-9.61401 4.70996,-9.12231 C5.22754,-8.63062 5.77962,-8.38477 6.36621,-8.38477 C7.00456,-8.38477 7.56958,-8.64355 8.06128,-9.16113 C8.55298,-9.67871 8.79883,-10.2308 8.79883,-10.8174 C8.79883,-11.4557 8.54004,-12.0208 8.02246,-12.5125 C7.50488,-13.0042 6.9528,-13.25 6.36621,-13.25 C5.72786,-13.25 5.16284,-12.9912 4.67114,-12.4736 C4.17944,-11.9561 3.93359,-11.404 3.93359,-10.8174 M3.18311,-18.4517 C3.18311,-19.3488 3.50659,-20.1036 4.15356,-20.7161 C4.80054,-21.3285 5.53809,-21.6348 6.36621,-21.6348 C7.26335,-21.6348 8.01815,-21.3113 8.63062,-20.6643 C9.24308,-20.0173 9.54932,-19.2798 9.54932,-18.4517 C9.54932,-17.5545 9.22583,-16.7997 8.57886,-16.1873 C7.93188,-15.5748 7.19434,-15.2686 6.36621,-15.2686 C5.46908,-15.2686 4.71427,-15.592 4.10181,-16.239 C3.48934,-16.886 3.18311,-17.6235 3.18311,-18.4517 M3.93359,-18.4517 C3.93359,-17.8133 4.19238,-17.244 4.70996,-16.7437 C5.22754,-16.2433 5.77962,-15.9932 6.36621,-15.9932 C7.00456,-15.9932 7.56958,-16.2563 8.06128,-16.7825 C8.55298,-17.3087 8.79883,-17.8651 8.79883,-18.4517 C8.79883,-19.09 8.54004,-19.655 8.02246,-20.1467 C7.50488,-20.6384 6.9528,-20.8843 6.36621,-20.8843 C5.72786,-20.8843 5.16284,-20.6255 4.67114,-20.1079 C4.17944,-19.5903 3.93359,-19.0382 3.93359,-18.4517 M3.18311,-26.0859 C3.18311,-26.9831 3.50659,-27.7336 4.15356,-28.3374 C4.80054,-28.9412 5.53809,-29.2432 6.36621,-29.2432 C7.26335,-29.2432 8.01815,-28.924 8.63062,-28.2856 C9.24308,-27.6473 9.54932,-26.9141 9.54932,-26.0859 C9.54932,-25.1888 9.22583,-24.434 8.57886,-23.8215 C7.93188,-23.2091 7.19434,-22.9028 6.36621,-22.9028 C5.46908,-22.9028 4.71427,-23.2263 4.10181,-23.8733 C3.48934,-24.5203 3.18311,-25.2578 3.18311,-26.0859 M3.18311,-33.7202 C3.18311,-34.6174 3.50659,-35.3678 4.15356,-35.9717 C4.80054,-36.5755 5.53809,-36.8774 6.36621,-36.8774 C7.26335,-36.8774 8.01815,-36.5583 8.63062,-35.9199 C9.24308,-35.2816 9.54932,-34.5483 9.54932,-33.7202 C9.54932,-32.8231 9.22583,-32.0683 8.57886,-31.4558 C7.93188,-30.8433 7.19434,-30.5371 6.36621,-30.5371 C5.46908,-30.5371 4.71427,-30.8606 4.10181,-31.5076 C3.48934,-32.1545 3.18311,-32.8921 3.18311,-33.7202 M3.18311,-41.3286 C3.18311,-42.2257 3.50659,-42.9806 4.15356,-43.593 C4.80054,-44.2055 5.53809,-44.5117 6.36621,-44.5117 C7.26335,-44.5117 8.01815,-44.1882 8.63062,-43.5413 C9.24308,-42.8943 9.54932,-42.1567 9.54932,-41.3286 C9.54932,-40.4315 9.22583,-39.681 8.57886,-39.0771 C7.93188,-38.4733 7.19434,-38.1714 6.36621,-38.1714 C5.46908,-38.1714 4.71427,-38.4906 4.10181,-39.1289 C3.48934,-39.7673 3.18311,-40.5005 3.18311,-41.3286 M3.93359,-41.3286 C3.93359,-40.6903 4.19238,-40.1252 4.70996,-39.6335 C5.22754,-39.1418 5.77962,-38.896 6.36621,-38.896 C7.00456,-38.896 7.56958,-39.1548 8.06128,-39.6724 C8.55298,-40.1899 8.79883,-40.742 8.79883,-41.3286 C8.79883,-41.967 8.54004,-42.5363 8.02246,-43.0366 C7.50488,-43.5369 6.9528,-43.7871 6.36621,-43.7871 C5.72786,-43.7871 5.16284,-43.524 4.67114,-42.9978 C4.17944,-42.4716 3.93359,-41.9152 3.93359,-41.3286 "/>
</g>

<g fill="none" stroke="#000000" stroke-opacity="1" stroke-width="1" stroke-linecap="square" stroke-linejoin="bevel" transform="matrix(3.125,0,0,3.125,1576.17,800.402)"
font-family="Tin Whistle Fingering" font-size="53" font-weight="400" font-style="normal" 
>
</g>

<g fill="none" stroke="#000000" stroke-opacity="1" stroke-width="1" stroke-linecap="square" stroke-linejoin="bevel" transform="matrix(3.125,0,0,3.125,795.344,800.402)"
font-family="Tin Whistle Fingering" font-size="53" font-weight="400" font-style="normal" 
>
</g>

<g fill="#000000" fill-opacity="1" stroke="none" transform="matrix(3.125,0,0,3.125,795.344,800.402)"
font-family="Tin Whistle Fingering" font-size="53" font-weight="400" font-style="normal" 
>
<path vector-effect="none" fill-rule="nonzero" d="M3.18311,-3.18311 C3.18311,-4.08024 3.50659,-4.83504 4.15356,-5.44751 C4.80054,-6.05998 5.53809,-6.36621 6.36621,-6.36621 C7.26335,-6.36621 8.01815,-6.04272 8.63062,-5.39575 C9.24308,-4.74878 9.54932,-4.01123 9.54932,-3.18311 C9.54932,-2.28597 9.22583,-1.53117 8.57886,-0.918701 C7.93188,-0.306234 7.19434,0 6.36621,0 C5.46908,0 4.71427,-0.323486 4.10181,-0.970459 C3.48934,-1.61743 3.18311,-2.35498 3.18311,-3.18311 M3.93359,-3.18311 C3.93359,-2.54476 4.19238,-1.97974 4.70996,-1.48804 C5.22754,-0.996338 5.77962,-0.750488 6.36621,-0.750488 C7.00456,-0.750488 7.56958,-1.00928 8.06128,-1.52686 C8.55298,-2.04443 8.79883,-2.59652 8.79883,-3.18311 C8.79883,-3.82145 8.54004,-4.38647 8.02246,-4.87817 C7.50488,-5.36987 6.9528,-5.61572 6.36621,-5.61572 C5.72786,-5.61572 5.16284,-5.35693 4.67114,-4.83936 C4.17944,-4.32178 3.93359,-3.76969 3.93359,-3.18311 M3.18311,-10.8174 C3.18311,-11.7145 3.50659,-12.4693 4.15356,-13.0818 C4.80054,-13.6943 5.53809,-14.0005 6.36621,-14.0005 C7.26335,-14.0005 8.01815,-13.677 8.63062,-13.03 C9.24308,-12.3831 9.54932,-11.6455 9.54932,-10.8174 C9.54932,-9.92025 9.22583,-9.16545 8.57886,-8.55298 C7.93188,-7.94051 7.19434,-7.63428 6.36621,-7.63428 C5.46908,-7.63428 4.71427,-7.95776 4.10181,-8.60474 C3.48934,-9.25171 3.18311,-9.98926 3.18311,-10.8174 M3.93359,-10.8174 C3.93359,-10.179 4.19238,-9.61401 4.70996,-9.12231 C5.22754,-8.63062 5.77962,-8.38477 6.36621,-8.38477 C7.00456,-8.38477 7.56958,-8.64355 8.06128,-9.16113 C8.55298,-9.67871 8.79883,-10.2308 8.79883,-10.8174 C8.79883,-11.4557 8.54004,-12.0208 8.02246,-12.5125 C7.50488,-13.0042 6.9528,-13.25 6.36621,-13.25 C5.72786,-13.25 5.16284,-12.9912 4.67114,-12.4736 C4.17944,-11.9561 3.93359,-11.404 3.93359,-10.8174 M3.18311,-18.4517 C3.18311,-19.3488 3.50659,-20.1036 4.15356,-20.7161 C4.80054,-21.3285 5.53809,-21.6348 6.36621,-21.6348 C7.26335,-21.6348 8.01815,-21.3113 8.63062,-20.6643 C9.24308,-20.0173 9.54932,-19.2798 9.54932,-18.4517 C9.54932,-17.5545 9.22583,-16.7997 8.57886,-16.1873 C7.93188,-15.5748 7.19434,-15.2686 6.36621,-15.2686 C5.46908,-15.2686 4.71427,-15.592 4.10181,-16.239 C3.48934,-16.886 3.18311,-17.6235 3.18311,-18.4517 M3.93359,-18.4517 C3.93359,-17.8133 4.19238,-17.244 4.70996,-16.7437 C5.22754,-16.2433 5.77962,-15.9932 6.36621,-15.9932 C7.00456,-15.9932 7.56958,-16.2563 8.06128,-16.7825 C8.55298,-17.3087 8.79883,-17.8651 8.79883,-18.4517 C8.79883,-19.09 8.54004,-19.655 8.02246,-20.1467 C7.50488,-20.6384 6.9528,-20.8843 6.36621,-20.8843 C5.72786,-20.8843 5.16284,-20.6255 4.67114,-20.1079 C4.17944,-19.5903 3.93359,-19.0382 3.93359,-18.4517 M3.18311,-26.0859 C3.18311,-26.9831 3.50659,-27.7336 4.15356,-28.3374 C4.80054,-28.9412 5.53809,-29.2432 6.36621,-29.2432 C7.26335,-29.2432 8.01815,-28.924 8.63062,-28.2856 C9.24308,-27.6473 9.54932,-26.9141 9.54932,-26.0859 C9.54932,-25.1888 9.22583,-24.434 8.57886,-23.8215 C7.93188,-23.2091 7.19434,-22.9028 6.36621,-22.9028 C5.46908,-22.9028 4.71427,-23.2263 4.10181,-23.8733 C3.48934,-24.5203 3.18311,-25.2578 3.18311,-26.0859 M3.93359,-26.0859 C3.93359,-25.4476 4.19238,-24.8783 4.70996,-24.3779 C5.22754,-23.8776 5.77962,-23.6274 6.36621,-23.6274 C7.00456,-23.6274 7.56958,-23.8905 8.06128,-24.4167 C8.55298,-24.943 8.79883,-25.4993 8.79883,-26.0859 C8.79883,-26.7243 8.54004,-27.2893 8.02246,-27.781 C7.50488,-28.2727 6.9528,-28.5186 6.36621,-28.5186 C5.72786,-28.5186 5.16284,-28.2598 4.67114,-27.7422 C4.17944,-27.2246 3.93359,-26.6725 3.93359,-26.0859 M3.18311,-33.7202 C3.18311,-34.6174 3.50659,-35.3678 4.15356,-35.9717 C4.80054,-36.5755 5.53809,-36.8774 6.36621,-36.8774 C7.26335,-36.8774 8.01815,-36.5583 8.63062,-35.9199 C9.24308,-35.2816 9.54932,-34.5483 9.54932,-33.7202 C9.54932,-32.8231 9.22583,-32.0683 8.57886,-31.4558 C7.93188,-30.8433 7.19434,-30.5371 6.36621,-30.5371 C5.46908,-30.5371 4.71427,-30.8606 4.10181,-31.5076 C3.48934,-32.1545 3.18311,-32.8921 3.18311,-33.7202 M3.93359,-33.7202 C3.93359,-33.0819 4.19238,-32.5125 4.70996,-32.0122 C5.22754,-31.5119 5.77962,-31.2617 6.36621,-31.2617 C7.00456,-31.2617 7.56958,-31.5248 8.06128,-32.051 C8.55298,-32.5772 8.79883,-33.1336 8.79883,-33.7202 C8.79883,-34.3586 8.54004,-34.9236 8.02246,-35.4153 C7.50488,-35.907 6.9528,-36.1528 6.36621,-36.1528 C5.72786,-36.1528 5.16284,-35.894 4.67114,-35.3765 C4.17944,-34.8589 3.93359,-34.3068 3.93359,-33.7202 M3.18311,-41.3286 C3.18311,-42.2257 3.50659,-42.9806 4.15356,-43.593 C4.80054,-44.2055 5.53809,-44.5117 6.36621,-44.5117 C7.26335,-44.5117 8.01815,-44.1882 8.63062,-43.5413 C9.24308,-42.8943 9.54932,-42.1567 9.54932,-41.3286 C9.54932,-40.4315 9.22583,-39.681 8.57886,-39.0771 C7.93188,-38.4733 7.19434,-38.1714 6.36621,-38.1714 C5.46908,-38.1714 4.71427,-38.4906 4.10181,-39.1289 C3.48934,-39.7673 3.18311,-40.5005 3.18311,-41.3286 M3.93359,-41.3286 C3.93359,-40.6903 4.19238,-40.1252 4.70996,-39.6335 C5.22754,-39.1418 5.77962,-38.896 6.36621,-38.896 C7.00456,-38.896 7.56958,-39.1548 8.06128,-39.6724 C8.55298,-40.1899 8.79883,-40.742 8.79883,-41.3286 C8.79883,-41.967 8.54004,-42.5363 8.02246,-43.0366 C7.50488,-43.5369 6.9528,-43.7871 6.36621,-43.7871 C5.72786,-43.7871 5.16284,-43.524 4.67114,-42.9978 C4.17944,-42.4716 3.93359,-41.9152 3.93359,-41.3286 "/>
</g>

<g fill="none" stroke="#000000" stroke-opacity="1" stroke-width="1" stroke-linecap="square" stroke-linejoin="bevel" transform="matrix(3.125,0,0,3.125,795.344,800.402)"
font-family="Tin Whistle Fingering" font-size="53" font-weight="400" font-style="normal" 
>
</g>

<g fill="none" stroke="#000000" stroke-opacity="1" stroke-width="1" stroke-linecap="square" stroke-linejoin="bevel" transform="matrix(3.125,0,0,3.125,547.513,800.402)"
font-family="Tin Whistle Fingering" font-size="53" font-weight="400" font-style="normal" 
>
</g>

<g fill="#000000" fill-opacity="1" stroke="none" transform="matrix(3.125,0,0,3.125,547.513,800.402)"
font-family="Tin Whistle Fingering" font-size="53" font-weight="400" font-style="normal" 
>
<path vector-effect="none" fill-rule="nonzero" d="M3.18311,-3.18311 C3.18311,-4.08024 3.50659,-4.83504 4.15356,-5.44751 C4.80054,-6.05998 5.53809,-6.36621 6.36621,-6.36621 C7.26335,-6.36621 8.01815,-6.04272 8.63062,-5.39575 C9.24308,-4.74878 9.54932,-4.01123 9.54932,-3.18311 C9.54932,-2.28597 9.22583,-1.53117 8.57886,-0.918701 C7.93188,-0.306234 7.19434,0 6.36621,0 C5.46908,0 4.71427,-0.323486 4.10181,-0.970459 C3.48934,-1.61743 3.18311,-2.35498 3.18311,-3.18311 M3.93359,-3.18311 C3.93359,-2.54476 4.19238,-1.97974 4.70996,-1.48804 C5.22754,-0.996338 5.77962,-0.750488 6.36621,-0.750488 C7.00456,-0.750488 7.56958,-1.00928 8.06128,-1.52686 C8.55298,-2.04443 8.79883,-2.59652 8.79883,-3.18311 C8.79883,-3.82145 8.54004,-4.38647 8.02246,-4.87817 C7.50488,-5.36987 6.9528,-5.61572 6.36621,-5.61572 C5.72786,-5.61572 5.16284,-5.35693 4.67114,-4.83936 C4.17944,-4.32178 3.93359,-3.76969 3.93359,-3.18311 M3.18311,-10.8174 C3.18311,-11.7145 3.50659,-12.4693 4.15356,-13.0818 C4.80054,-13.6943 5.53809,-14.0005 6.36621,-14.0005 C7.26335,-14.0005 8.01815,-13.677 8.63062,-13.03 C9.24308,-12.3831 9.54932,-11.6455 9.54932,-10.8174 C9.54932,-9.92025 9.22583,-9.16545 8.57886,-8.55298 C7.93188,-7.94051 7.19434,-7.63428 6.36621,-7.63428 C5.46908,-7.63428 4.71427,-7.95776 4.10181,-8.60474 C3.48934,-9.25171 3.18311,-9.98926 3.18311,-10.8174 M3.93359,-10.8174 C3.93359,-10.179 4.19238,-9.61401 4.70996,-9.12231 C5.22754,-8.63062 5.77962,-8.38477 6.36621,-8.38477 C7.00456,-8.38477 7.56958,-8.64355 8.06128,-9.16113 C8.55298,-9.67871 8.79883,-10.2308 8.79883,-10.8174 C8.79883,-11.4557 8.54004,-12.0208 8.02246,-12.5125 C7.50488,-13.0042 6.9528,-13.25 6.36621,-13.25 C5.72786,-13.25 5.16284,-12.9912 4.67114,-12.4736 C4.17944,-11.9561 3.93359,-11.404 3.93359,-10.8174 M3.18311,-18.4517 C3.18311,-19.3488 3.50659,-20.1036 4.15356,-20.7161 C4.80054,-21.3285 5.53809,-21.6348 6.36621,-21.6348 C7.26335,-21.6348 8.01815,-21.3113 8.63062,-20.6643 C9.24308,-20.0173 9.54932,-19.2798 9.54932,-18.4517 C9.54932,-17.5545 9.22583,-16.7997 8.57886,-16.1873 C7.93188,-15.5748 7.19434,-15.2686 6.36621,-15.2686 C5.46908,-15.2686 4.71427,-15.592 4.10181,-16.239 C3.48934,-16.886 3.18311,-17.6235 3.18311,-18.4517 M3.93359,-18.4517 C3.93359,-17.8133 4.19238,-17.244 4.70996,-16.7437 C5.22754,-16.2433 5.77962,-15.9932 6.36621,-15.9932 C7.00456,-15.9932 7.56958,-16.2563 8.06128,-16.7825 C8.55298,-17.3087 8.79883,-17.8651 8.79883,-18.4517 C8.79883,-19.09 8.54004,-19.655 8.02246,-20.1467 C7.50488,-20.6384 6.9528,-20.8843 6.36621,-20.8843 C5.72786,-20.8843 5.16284,-20.6255 4.67114,-20.1079 C4.17944,-19.5903 3.93359,-19.0382 3.93359,-18.4517 M3.18311,-26.0859 C3.18311,-26.9831 3.50659,-27.7336 4.15356,-28.3374 C4.80054,-28.9412 5.53809,-29.2432 6.36621,-29.2432 C7.26335,-29.2432 8.01815,-28.924 8.63062,-28.2856 C9.24308,-27.6473 9.54932,-26.9141 9.54932,-26.0859 C9.54932,-25.1888 9.22583,-24.434 8.57886,-23.8215 C7.93188,-23.2091 7.19434,-22.9028 6.36621,-22.9028 C5.46908,-22.9028 4.71427,-23.2263 4.10181,-23.8733 C3.48934,-24.5203 3.18311,-25.2578 3.18311,-26.0859 M3.18311,-33.7202 C3.18311,-34.6174 3.50659,-35.3678 4.15356,-35.9717 C4.80054,-36.5755 5.53809,-36.8774 6.36621,-36.8774 C7.26335,-36.8774 8.01815,-36.5583 8.63062,-35.9199 C9.24308,-35.2816 9.54932,-34.5483 9.54932,-33.7202 C9.54932,-32.8231 9.22583,-32.0683 8.57886,-31.4558 C7.93188,-30.8433 7.19434,-30.5371 6.36621,-30.5371 C5.46908,-30.5371 4.71427,-30.8606 4.10181,-31.5076 C3.48934,-32.1545 3.18311,-32.8921 3.18311,-33.7202 M3.18311,-41.3286 C3.18311,-42.2257 3.50659,-42.9806 4.15356,-43.593 C4.80054,-44.2055 5.53809,-44.5117 6.36621,-44.5117 C7.26335,-44.5117 8.01815,-44.1882 8.63062,-43.5413 C9.24308,-42.8943 9.54932,-42.1567 9.54932,-41.3286 C9.54932,-40.4315 9.22583,-39.681 8.57886,-39.0771 C7.93188,-38.4733 7.19434,-38.1714 6.36621,-38.1714 C5.46908,-38.1714 4.71427,-38.4906 4.10181,-39.1289 C3.48934,-39.7673 3.18311,-40.5005 3.18311,-41.3286 M3.93359,-41.3286 C3.93359,-40.6903 4.19238,-40.1252 4.70996,-39.6335 C5.22754,-39.1418 5.77962,-38.896 6.36621,-38.896 C7.00456,-38.896 7.56958,-39.1548 8.06128,-39.6724 C8.55298,-40.1899 8.79883,-40.742 8.79883,-41.3286 C8.79883,-41.967 8.54004,-42.5363 8.02246,-43.0366 C7.50488,-43.5369 6.9528,-43.7871 6.36621,-43.7871 C5.72786,-43.7871 5.16284,-43.524 4.67114,-42.9978 C4.17944,-42.4716 3.93359,-41.9152 3.93359,-41.3286 "/>
</g>

<g fill="none" stroke="#000000" stroke-opacity="1" stroke-width="1" stroke-linecap="square" stroke-linejoin="bevel" transform="matrix(3.125,0,0,3.125,547.513,800.402)"
font-family="Tin Whistle Fingering" font-size="53" font-weight="400" font-style="normal" 
>
</g>
</g>
</svg>
